<svg xmlns="http://www.w3.org/2000/svg" width="443" height="563" viewBox="0 0 443 563" version="1.1"><path d="M 274.485 136.025 C 274.077 136.684, 274.364 137.609, 275.122 138.080 C 276.785 139.113, 277.681 137.281, 276.225 135.825 C 275.559 135.159, 274.979 135.226, 274.485 136.025 M 222.542 143.931 C 222.179 144.519, 220.820 145, 219.522 145 C 216.851 145, 205.890 147.572, 201.783 149.163 C 198.955 150.258, 198.546 151.021, 197.437 157.274 C 197.069 159.350, 196.033 161.610, 195.134 162.297 C 194.235 162.983, 192.406 164.775, 191.069 166.279 C 188.689 168.957, 188.678 169.045, 190.569 170.475 C 191.631 171.279, 193.294 171.951, 194.264 171.968 C 195.234 171.986, 196.809 172.397, 197.764 172.883 C 199.763 173.901, 203.013 175.242, 208 177.108 C 209.925 177.828, 212.809 179.630, 214.410 181.111 C 216.863 183.382, 217.309 184.547, 217.248 188.535 C 217.180 193.039, 214.743 204.962, 212.915 209.731 C 212.244 211.483, 212.498 212.196, 214.097 213.052 C 217.137 214.679, 221.893 222.692, 221.259 225.119 C 220.887 226.540, 220.490 226.794, 219.966 225.945 C 219.395 225.021, 217.780 225.303, 213.355 227.101 C 205.020 230.489, 203.509 232.895, 209.750 232.843 C 211.813 232.826, 214.654 233.262, 216.065 233.811 C 217.476 234.360, 221.301 235.131, 224.565 235.524 C 227.829 235.917, 231.239 236.886, 232.142 237.676 C 233.127 238.539, 235.311 238.991, 237.606 238.807 C 240.640 238.563, 241.506 238.874, 241.800 240.311 C 242.116 241.857, 241.682 242.037, 238.835 241.539 C 237.001 241.218, 233.818 240.853, 231.763 240.728 C 229.708 240.603, 227.836 240.005, 227.602 239.400 C 227.052 237.974, 214.473 238.312, 210.685 239.854 C 209.137 240.484, 207.449 241, 206.935 241 C 205.470 241, 205.840 243.622, 207.500 245 C 208.325 245.685, 209 246.844, 209 247.575 C 209 249.178, 214.986 250.975, 220.500 251.026 C 223.836 251.057, 224.241 251.266, 222.938 252.282 C 222.079 252.952, 221.072 254.309, 220.701 255.297 C 220.191 256.656, 218.988 257.077, 215.763 257.027 C 210.050 256.937, 205 257.989, 205 259.269 C 205 261.458, 212.839 268, 215.462 268 C 216.902 268, 219.343 268.933, 220.885 270.073 C 224.834 272.993, 234.325 273.224, 236.552 270.455 C 237.555 269.210, 238.302 268.915, 238.611 269.644 C 239.285 271.233, 242.820 270.139, 243.461 268.142 C 243.751 267.239, 245.167 265.150, 246.608 263.500 C 248.049 261.850, 249.903 259.488, 250.729 258.250 C 252.196 256.051, 254 255.235, 254 256.770 C 254 257.193, 251.979 260.230, 249.508 263.520 C 247.038 266.809, 244.541 270.923, 243.960 272.662 C 243.379 274.400, 242.215 276.087, 241.373 276.410 C 240.531 276.733, 237.434 278.597, 234.490 280.551 C 231.546 282.505, 227.419 284.344, 225.319 284.637 C 220.790 285.270, 215 288.014, 215 289.527 C 215 290.117, 215.538 291.138, 216.196 291.796 C 218.634 294.234, 214.088 295.739, 202.902 296.200 C 191.781 296.659, 188.215 297.861, 186.066 301.877 C 185.194 303.505, 185.820 304.158, 190.788 306.806 C 203.549 313.608, 222.112 316.477, 234.500 313.562 C 242.757 311.619, 250.957 308.043, 253.898 305.102 C 256.553 302.447, 256.767 293.366, 254.376 284.842 C 252.992 279.910, 252.915 277.608, 253.858 269.277 C 255.423 255.442, 255.430 255.409, 259.286 246 C 261.201 241.325, 263.098 235.961, 263.501 234.080 C 263.904 232.199, 265.471 228.952, 266.984 226.863 C 269.067 223.988, 269.899 221.401, 270.411 216.211 C 270.889 211.354, 272.093 207.354, 274.543 202.486 C 277.927 195.760, 278.815 190.834, 277.123 188.165 C 276.463 187.124, 276.157 187.234, 275.729 188.665 C 275.428 189.674, 273.566 194.308, 271.591 198.962 C 269.616 203.617, 268 208.427, 268 209.653 C 268 210.879, 267.619 212.117, 267.153 212.405 C 266.688 212.693, 265.997 204.990, 265.618 195.288 C 265.239 185.586, 264.490 175.687, 263.953 173.289 C 263.415 170.892, 262.762 166.045, 262.500 162.517 C 262.221 158.755, 261.200 154.637, 260.029 152.552 C 258.932 150.599, 258.284 149, 258.589 149 C 258.893 149, 258.509 148.366, 257.733 147.591 C 256.958 146.815, 254.564 146.057, 252.412 145.904 C 250.260 145.752, 247.944 145.212, 247.265 144.704 C 245.413 143.318, 223.347 142.629, 222.542 143.931 M 277 149.382 C 277 150.207, 277.450 151.160, 278 151.500 C 278.550 151.840, 279 151.443, 279 150.618 C 279 149.793, 278.550 148.840, 278 148.500 C 277.450 148.160, 277 148.557, 277 149.382 M 267 154.774 C 267 155.934, 267.451 157.161, 268.003 157.502 C 268.578 157.857, 268.874 157.253, 268.695 156.087 C 268.257 153.215, 267 152.242, 267 154.774 M 277.015 174.750 C 277.026 176.751, 277.273 177.116, 277.923 176.091 C 278.413 175.316, 278.583 174.078, 278.300 173.341 C 277.489 171.226, 276.999 171.764, 277.015 174.750 M 234.430 178.965 C 233.291 179.426, 231.627 180.921, 230.731 182.288 C 228.828 185.192, 228.974 190.646, 230.943 190.207 C 231.817 190.013, 232.077 190.598, 231.721 191.957 C 231.287 193.619, 231.662 194, 233.733 194 C 235.134 194, 236.877 193.213, 237.608 192.250 C 238.819 190.655, 238.939 190.648, 238.968 192.171 C 239.009 194.337, 244.519 195.644, 246.541 193.966 C 248.426 192.402, 248.407 191, 246.500 191 C 245.675 191, 245 190.612, 245 190.139 C 245 188.677, 249.783 190.103, 251.595 192.105 C 253.844 194.590, 256.921 194.815, 254.872 192.345 C 253.001 190.089, 247.731 188, 243.910 188 C 241.219 188, 240.938 187.779, 242 186.500 C 243.024 185.266, 242.942 185, 241.539 185 C 238.276 185, 240.663 182.494, 244.818 181.558 C 247.118 181.040, 249 180.027, 249 179.308 C 249 177.805, 237.939 177.544, 234.430 178.965 M 197.638 188.500 C 197.300 189.382, 195.800 190, 193.996 190 C 191.240 190, 191.038 190.202, 192 192 C 192.840 193.570, 194.094 194, 197.835 194 C 204.278 194, 205.686 192.448, 202.032 189.374 C 198.717 186.584, 198.398 186.521, 197.638 188.500 M 199 196.065 C 197.625 196.469, 192.168 196.845, 186.872 196.900 C 180.016 196.971, 176.916 197.396, 176.102 198.377 C 174.523 200.280, 175.650 210.758, 177.798 214.144 C 180.137 217.830, 186.844 223, 189.287 223 C 190.451 223, 193.980 220.238, 197.661 216.447 C 206.630 207.209, 207.362 205.897, 206.553 200.502 C 206.181 198.026, 205.568 195.966, 205.189 195.923 C 204.810 195.881, 203.825 195.730, 203 195.588 C 202.175 195.445, 200.375 195.660, 199 196.065 M 232.468 196.948 C 233.434 198.511, 240.854 201.948, 243.327 201.978 C 244.771 201.995, 244.518 201.465, 242.115 199.443 C 238.829 196.678, 231.059 194.668, 232.468 196.948 M 168.624 202.750 C 168.003 204.880, 167.753 209.823, 167.929 216.500 C 168.040 220.697, 168.240 221.191, 169.178 219.576 C 170.614 217.101, 173.935 202.268, 173.214 201.548 C 172.010 200.343, 169.104 201.104, 168.624 202.750 M 158.684 205.750 C 158.446 206.162, 158.612 207.400, 159.055 208.500 C 159.757 210.246, 159.868 210.151, 159.930 207.750 C 159.999 205.037, 159.531 204.286, 158.684 205.750 M 206.459 212.067 C 205.515 213.594, 206.262 214.006, 208.782 213.347 C 209.990 213.031, 210.731 212.374, 210.430 211.886 C 209.674 210.664, 207.258 210.773, 206.459 212.067 M 225.166 218.876 C 224.102 219.551, 224.169 219.851, 225.498 220.361 C 228.382 221.467, 231 221.058, 231 219.500 C 231 217.862, 227.378 217.474, 225.166 218.876 M 167.063 223.309 C 167.025 224.390, 166.546 224.837, 165.870 224.420 C 165.249 224.036, 164.946 224.122, 165.198 224.611 C 165.449 225.100, 166.281 226.963, 167.047 228.750 C 169.850 235.295, 170.689 230.329, 167.934 223.500 C 167.218 221.725, 167.120 221.704, 167.063 223.309 M 143 276.972 C 141.075 279.083, 139.500 281.415, 139.500 282.155 C 139.500 282.895, 138.850 283.500, 138.056 283.500 C 135.831 283.500, 132.665 289.800, 132.384 294.788 C 132.107 299.679, 132.944 299.429, 135.014 294 C 135.748 292.075, 137.776 288.250, 139.520 285.500 C 144.122 278.246, 147.212 272.990, 146.832 273.067 C 146.649 273.104, 144.925 274.862, 143 276.972 M 279.228 286.976 C 280.964 290.261, 282.554 292.780, 282.761 292.572 C 283.771 291.562, 280.411 283.844, 278.382 282.515 C 276.209 281.091, 276.259 281.353, 279.228 286.976 M 293.083 294.365 C 293.313 294.565, 294.625 295.265, 296 295.920 C 298.357 297.042, 298.389 297.022, 296.559 295.555 C 294.966 294.279, 291.711 293.164, 293.083 294.365 M 127.170 296.230 C 124.533 298.867, 105.813 308.735, 102.480 309.245 C 100.271 309.583, 96.911 311.453, 79.500 322.035 C 62.272 332.506, 57.588 336.297, 53.983 342.685 C 52.270 345.719, 51.070 348.404, 51.316 348.650 C 51.563 348.896, 52.942 348.802, 54.382 348.440 C 56.352 347.946, 57.017 347.129, 57.070 345.142 C 57.109 343.689, 57.527 341.600, 58 340.500 C 58.713 338.841, 58.888 339.096, 59.029 342 C 59.158 344.657, 59.356 345.004, 59.850 343.441 C 60.608 341.040, 63.423 337.528, 67.416 334 L 70.247 331.500 67.123 337.081 C 65.405 340.150, 64 343.033, 64 343.487 C 64 343.941, 66.274 341.941, 69.053 339.042 C 71.832 336.144, 74.337 334.004, 74.620 334.287 C 74.903 334.570, 73.949 337.141, 72.500 340 C 71.051 342.859, 70.047 345.380, 70.268 345.602 C 70.490 345.823, 74.083 342.291, 78.252 337.752 C 94.089 320.512, 98.438 316.504, 103.250 314.714 C 104.213 314.356, 105 313.406, 105 312.603 C 105 310.367, 107.865 308, 110.571 308 C 111.907 308, 113 307.622, 113 307.161 C 113 306.699, 114.363 306.403, 116.029 306.502 C 118.242 306.633, 120.014 305.780, 122.610 303.332 C 124.563 301.489, 126.487 300.183, 126.885 300.429 C 127.283 300.675, 128.107 299.554, 128.717 297.938 C 129.881 294.855, 129.246 294.154, 127.170 296.230 M 290.027 295.209 C 289.981 296.407, 295.437 305, 296.243 305 C 298.061 305, 296.727 301.677, 293.527 298.235 C 291.617 296.181, 290.042 294.819, 290.027 295.209 M 303 299.692 C 303 300.200, 306.488 302.518, 310.750 304.844 C 320.278 310.043, 327.103 314.816, 333 320.404 C 335.475 322.749, 340.004 326.286, 343.064 328.264 C 346.124 330.242, 351.035 334.024, 353.977 336.670 C 361.103 343.076, 358.878 338.801, 350.586 330.153 C 342.614 321.839, 338.292 318.765, 321.527 309.487 C 313.842 305.234, 306.529 301.082, 305.277 300.262 C 304.025 299.441, 303 299.185, 303 299.692 M 278.697 314.792 C 279.376 315.223, 279.553 316.105, 279.106 316.829 C 278.278 318.168, 275.927 318.082, 274.895 316.676 C 274.563 316.223, 273.509 316.633, 272.555 317.588 C 271.094 319.049, 270.677 319.100, 269.925 317.912 C 269.433 317.135, 269.031 316.950, 269.031 317.500 C 269.031 318.050, 269.508 319.175, 270.091 320 C 270.890 321.129, 271.278 321.191, 271.659 320.250 C 272.596 317.942, 274.231 318.942, 273.605 321.439 C 273.268 322.780, 273.455 324.163, 274.021 324.513 C 274.587 324.863, 274.985 324.778, 274.906 324.324 C 274.552 322.283, 275.120 321.977, 276.571 323.429 C 278 324.857, 277.984 325.159, 276.393 326.750 C 274.774 328.369, 274.768 328.524, 276.321 328.823 C 277.245 329.001, 278 329.543, 278 330.026 C 278 330.510, 279.599 331.665, 281.554 332.592 C 283.772 333.645, 284.911 334.790, 284.585 335.639 C 284.298 336.388, 284.446 337, 284.915 337 C 285.383 337, 286.014 337.945, 286.316 339.101 C 286.685 340.513, 287.297 340.942, 288.183 340.409 C 289.272 339.753, 289.272 339.898, 288.182 341.242 C 287.024 342.671, 287.327 342.997, 290.682 343.929 C 295.879 345.372, 303.527 345.275, 304.793 343.750 C 305.593 342.786, 304.968 342.517, 302.059 342.575 C 297.196 342.673, 294 341.466, 294 339.532 C 294 338.690, 293.433 338, 292.741 338 C 292.048 338, 290.839 336.988, 290.053 335.750 C 287.607 331.896, 287.920 326.648, 290.536 327.652 C 291.623 328.069, 291.661 328.570, 290.722 330.073 C 289.763 331.610, 289.866 332.294, 291.270 333.698 C 292.221 334.650, 293 334.920, 293 334.298 C 293 333.676, 292.438 332.940, 291.750 332.662 C 291.063 332.385, 291.561 332.122, 292.857 332.079 C 294.395 332.027, 295.041 332.450, 294.717 333.295 C 294.379 334.175, 295.066 334.537, 296.860 334.424 C 301.615 334.125, 302 334.012, 302 332.917 C 302 332.321, 301.442 332.019, 300.759 332.247 C 300.076 332.475, 298.938 332.081, 298.230 331.373 C 297.522 330.665, 296.280 330.339, 295.471 330.649 C 292.640 331.736, 294.028 329.476, 297 328.160 C 298.650 327.430, 300 326.476, 300 326.041 C 300 325.082, 294.956 324, 290.482 324 C 288.533 324, 286.987 323.408, 286.651 322.534 C 286.208 321.377, 286.713 321.193, 289.044 321.659 C 290.670 321.984, 292 322.013, 292 321.724 C 292 320.951, 284.635 316.589, 283.722 316.821 C 283.294 316.930, 282.684 316.339, 282.365 315.509 C 282.047 314.679, 280.822 314.007, 279.643 314.015 C 278.277 314.025, 277.934 314.307, 278.697 314.792 M 178.750 317.954 C 179.988 318.980, 181 320.341, 181 320.978 C 181 321.658, 181.780 321.887, 182.895 321.533 C 184.013 321.179, 185.467 321.610, 186.442 322.585 C 188.758 324.901, 187.636 325.506, 183.898 323.958 C 181.070 322.786, 180.586 322.846, 179.366 324.514 C 178.615 325.542, 178 325.981, 178 325.491 C 178 325.001, 177.460 325.140, 176.800 325.800 C 174.755 327.845, 173.004 327.145, 172.921 324.250 C 172.878 322.738, 172.609 322.081, 172.324 322.792 C 171.918 323.803, 171.491 323.823, 170.360 322.884 C 169.290 321.996, 168.624 321.976, 167.790 322.810 C 166.957 323.643, 167.120 324.109, 168.417 324.606 C 169.380 324.976, 169.726 325.553, 169.187 325.889 C 168.131 326.547, 167.701 328.938, 167.885 333.130 C 167.964 334.946, 169.361 336.874, 172.404 339.367 L 176.807 342.976 181.561 341.238 C 185.228 339.898, 186.414 339.788, 186.743 340.756 C 186.978 341.447, 187.552 341.777, 188.017 341.490 C 188.482 341.202, 189.545 341.941, 190.379 343.131 C 191.849 345.229, 192.212 345.265, 202.198 344.308 C 207.864 343.765, 218.125 343.225, 225 343.108 C 231.875 342.991, 237.799 342.581, 238.165 342.198 C 238.531 341.814, 238.981 340.375, 239.165 339 C 239.480 336.651, 239.809 336.520, 244.612 336.832 C 249.916 337.176, 249.806 337.254, 251.381 332 C 251.463 331.725, 251.931 330.868, 252.420 330.095 C 253.675 328.114, 254.229 322, 253.154 322 C 252.663 322, 249.464 322.893, 246.045 323.986 C 226.332 330.283, 202.118 328.548, 183.529 319.506 C 179.621 317.605, 177.499 316.916, 178.750 317.954 M 264.710 320 C 264.998 321.100, 265.406 322, 265.617 322 C 265.827 322, 266 321.100, 266 320 C 266 318.900, 265.592 318, 265.094 318 C 264.595 318, 264.423 318.900, 264.710 320 M 300 322.137 C 300 322.646, 300.686 323.326, 301.526 323.648 C 302.702 324.100, 302.788 324.550, 301.903 325.617 C 301.005 326.699, 301.112 327, 302.397 327 C 303.648 327, 303.889 327.594, 303.411 329.500 C 302.859 331.699, 303.105 332, 305.451 332 C 306.918 332, 307.871 331.601, 307.570 331.113 C 307.269 330.626, 307.653 329.703, 308.425 329.062 C 309.528 328.146, 310.270 328.373, 311.902 330.125 C 313.043 331.350, 314.238 333.173, 314.556 334.176 C 314.874 335.179, 315.459 336, 315.855 336 C 316.250 336, 316.646 336.946, 316.733 338.101 C 316.820 339.257, 318.969 344.418, 321.509 349.570 C 324.049 354.722, 326.098 359.177, 326.063 359.469 C 326.029 359.761, 326.788 360.805, 327.750 361.788 C 329.283 363.355, 329.584 363.386, 330.180 362.038 C 330.603 361.080, 330.886 361.735, 330.930 363.776 C 331.019 367.935, 333.286 380, 333.978 380.001 C 334.265 380.001, 334.444 375.613, 334.375 370.251 C 334.266 361.777, 335.472 351.225, 337.450 343.342 C 337.774 342.054, 337.641 341, 337.156 341 C 336.670 341, 335.697 343.813, 334.993 347.250 C 333.201 356.001, 331.432 360, 329.351 360 C 328.048 360, 327.890 359.710, 328.731 358.869 C 329.955 357.645, 329.004 355.475, 323.525 347 C 321.925 344.525, 319.556 340.321, 318.261 337.657 C 315.617 332.221, 315.155 331.599, 309.389 325.703 C 305.575 321.803, 300 319.686, 300 322.137 M 265 323.427 C 265 323.742, 265.916 324.916, 267.036 326.036 C 268.157 327.157, 268.793 328.526, 268.450 329.080 C 268.108 329.634, 268.372 330.743, 269.036 331.544 C 269.887 332.569, 269.913 333, 269.122 333 C 268.505 333, 267.997 334.012, 267.994 335.250 C 267.988 337.311, 267.862 337.260, 266.494 334.636 C 264.742 331.277, 264.643 330.661, 265.989 331.493 C 266.561 331.847, 266.720 331.433, 266.365 330.509 C 265.584 328.473, 265.267 328.829, 262.438 334.937 L 260.100 339.983 262.219 341.117 C 265.461 342.852, 278 346.810, 278 346.098 C 278 345.752, 275.830 344.699, 273.179 343.757 C 268.528 342.105, 262.546 338, 264.790 338 C 265.393 338, 267.506 338.956, 269.486 340.124 C 271.465 341.292, 273.345 341.988, 273.663 341.671 C 274.492 340.842, 273.072 334, 272.071 334 C 271.610 334, 271.018 332.875, 270.755 331.500 C 270.478 330.051, 270.744 328.994, 271.389 328.985 C 272.103 328.975, 272.143 328.707, 271.500 328.235 C 270.950 327.831, 270.002 326.600, 269.393 325.500 C 268.381 323.672, 265 322.077, 265 323.427 M 273.702 331.631 C 273.355 331.979, 273.508 333.081, 274.043 334.081 C 274.578 335.080, 275.134 337.349, 275.277 339.122 C 275.421 340.896, 276.104 342.460, 276.794 342.598 C 277.485 342.737, 277.589 342.621, 277.025 342.342 C 275.404 341.538, 275.833 339.999, 277.500 340.638 C 278.325 340.955, 279 341.814, 279 342.548 C 279 344.200, 279.625 344.577, 283.875 345.489 C 286.241 345.997, 287.046 345.883, 286.566 345.107 C 286.190 344.498, 285.062 344, 284.060 344 C 283.057 344, 281.042 342.433, 279.581 340.517 C 277.913 338.331, 277.497 337.253, 278.462 337.624 C 280.470 338.394, 280.460 336.102, 278.443 333.223 C 276.915 331.041, 274.951 330.382, 273.702 331.631 M 281.372 337.856 C 281.794 341.480, 282.735 343, 284.559 343 C 286.425 343, 286.393 342.780, 283.901 338.557 C 281.362 334.254, 280.939 334.136, 281.372 337.856 M 339.122 337.278 C 337.494 338.906, 337.743 340.458, 339.411 339.074 C 341.541 337.306, 342.269 339.372, 341.054 343.737 C 340.173 346.903, 340.275 347.698, 341.695 348.750 C 343.226 349.884, 343.181 350, 341.210 350 C 338.733 350, 337.514 353.233, 338.207 357.960 C 338.444 359.574, 338.302 360.687, 337.891 360.433 C 336.893 359.816, 336.125 362.800, 336.332 366.487 C 336.448 368.543, 337.090 369.588, 338.393 369.838 C 339.888 370.125, 340.170 369.760, 339.737 368.101 C 339.434 366.945, 339.581 366, 340.062 366 C 340.543 366, 340.678 365.325, 340.362 364.500 C 340.045 363.675, 340.284 363, 340.893 363 C 341.502 363, 342 363.675, 342 364.500 C 342 365.325, 342.450 366, 343 366 C 343.550 366, 344 367.575, 344 369.500 C 344 371.425, 344.450 373, 345 373 C 345.550 373, 345.947 373.337, 345.882 373.750 C 345.556 375.815, 346.118 377.045, 347.107 376.434 C 347.857 375.971, 348.007 376.517, 347.573 378.125 C 347.143 379.716, 347.589 379.344, 348.924 377 C 350.020 375.075, 350.935 372.488, 350.958 371.250 C 350.981 370.012, 351.388 369, 351.862 369 C 352.720 369, 352.663 370.970, 351.653 376.270 C 350.760 380.955, 352.878 378.239, 354.437 372.699 C 355.722 368.134, 356.477 361.494, 356.052 358.500 C 355.974 357.950, 355.317 358.850, 354.593 360.500 C 353.307 363.432, 353.275 363.366, 353.175 357.619 C 353.103 353.479, 352.543 351.157, 351.286 349.777 C 350.304 348.699, 348.370 345.545, 346.988 342.768 C 344.396 337.559, 341.125 335.275, 339.122 337.278 M 241 340.441 C 241 342.398, 241.174 344, 241.387 344 C 242.208 344, 242.621 337.884, 241.833 337.397 C 241.375 337.114, 241 338.484, 241 340.441 M 270.226 338.574 C 271.176 339.568, 272.227 340.107, 272.562 339.771 C 272.897 339.436, 272.120 338.623, 270.836 337.964 C 268.603 336.819, 268.576 336.846, 270.226 338.574 M 295 338.893 C 295 340.026, 297.526 341.009, 300.332 340.968 C 302.453 340.937, 302.458 340.905, 300.559 339.468 C 298.415 337.847, 295 337.493, 295 338.893 M 360.042 344.078 C 360.654 345.221, 360.900 346.819, 360.588 347.630 C 360.277 348.441, 360.417 348.860, 360.899 348.562 C 361.382 348.264, 362.021 349.253, 362.319 350.760 C 362.618 352.267, 364.277 358.900, 366.005 365.500 C 368.741 375.949, 369.179 379.409, 369.394 392.270 C 369.540 401.069, 370.071 407.471, 370.707 408.107 C 372.616 410.016, 373.038 407.435, 372.056 399.841 C 371.534 395.804, 370.895 387.775, 370.635 382 C 370.263 373.710, 369.400 368.999, 366.537 359.614 C 363.080 348.283, 360.548 342, 359.439 342 C 359.159 342, 359.430 342.935, 360.042 344.078 M 253 348.656 C 246.967 350.748, 246.578 351.420, 251.870 350.608 C 256.915 349.834, 262.897 347.075, 259.500 347.088 C 258.400 347.092, 255.475 347.798, 253 348.656 M 283.500 348 C 286.249 349.181, 287.828 349.181, 286 348 C 285.175 347.467, 283.825 347.055, 283 347.086 C 282.011 347.122, 282.181 347.433, 283.500 348 M 81.125 349.349 C 79.668 351.105, 77.879 360.589, 78.483 363.352 C 78.742 364.533, 79.167 368.650, 79.428 372.500 C 79.970 380.479, 81.694 386.269, 83.364 385.712 C 83.989 385.504, 84.500 384.846, 84.500 384.250 C 84.500 383.654, 84.775 382.892, 85.111 382.556 C 85.447 382.220, 85.375 380.051, 84.952 377.737 C 84.529 375.422, 84.542 372.847, 84.983 372.014 C 85.626 370.797, 85.517 354.516, 84.830 349.250 C 84.614 347.599, 82.531 347.655, 81.125 349.349 M 262 349.578 C 262 350.295, 262.409 351.135, 262.910 351.444 C 264.275 352.288, 267.139 350.918, 266.709 349.627 C 266.181 348.039, 262 347.995, 262 349.578 M 207.500 353.742 C 201.450 354.442, 195.712 354.829, 194.749 354.601 C 193.638 354.338, 193.252 354.599, 193.694 355.314 C 194.077 355.934, 194.486 358.029, 194.603 359.971 C 194.720 361.912, 195.112 365.750, 195.474 368.500 C 195.837 371.250, 196.216 377.849, 196.317 383.165 C 196.436 389.435, 196.851 392.557, 197.500 392.052 C 198.050 391.624, 201.400 390.986, 204.944 390.632 C 211.562 389.973, 213.101 388.980, 212.896 385.500 C 212.675 381.733, 213 379.667, 213.704 380.371 C 214.091 380.758, 214.483 382.295, 214.575 383.787 C 214.871 388.588, 214.983 389, 216 389 C 216.550 389, 217 388.114, 217 387.031 C 217 385.692, 217.480 385.247, 218.500 385.638 C 220.446 386.385, 220.408 385.551, 218.404 383.546 C 217.455 382.598, 216.648 379.695, 216.415 376.398 C 216.199 373.344, 215.705 370.331, 215.316 369.702 C 214.928 369.074, 214.572 367.084, 214.526 365.280 C 214.464 362.848, 214.874 362, 216.114 362 C 218.196 362, 219.386 364.830, 218.005 366.494 C 217.282 367.365, 217.384 368.074, 218.348 368.874 C 219.177 369.562, 219.604 371.476, 219.427 373.710 C 219.266 375.744, 219.397 377.834, 219.720 378.355 C 220.839 380.167, 220.498 386.257, 219.250 386.735 C 216.432 387.815, 218.284 389.094, 222.250 388.807 C 226.415 388.506, 226.497 388.430, 226.352 385 C 225.868 373.583, 225.177 367.138, 224.260 365.500 C 223.491 364.125, 223.582 363.275, 224.609 362.248 C 226.238 360.619, 226.429 359, 224.992 359 C 224.370 359, 224.430 358.284, 225.149 357.132 C 225.791 356.105, 226.051 354.574, 225.726 353.729 C 225.039 351.937, 223.074 351.938, 207.500 353.742 M 249.500 353 L 246.500 353.763 249.500 353.763 C 251.150 353.763, 253.850 353.420, 255.500 353 L 258.500 352.237 255.500 352.237 C 253.850 352.237, 251.150 352.580, 249.500 353 M 261.466 355.106 C 260.893 356.912, 258.103 357.964, 253.832 357.986 C 252.364 357.994, 250.366 358.306, 249.390 358.680 C 247.960 359.229, 248.282 359.601, 251.058 360.604 L 254.500 361.848 251.309 361.924 C 249.554 361.966, 247.852 362.430, 247.527 362.956 C 247.202 363.482, 246.372 363.696, 245.683 363.432 C 243.888 362.743, 243.831 366.615, 245.615 368.095 C 246.673 368.973, 246.769 369.525, 245.952 370.030 C 245.235 370.473, 244.841 373.751, 244.896 378.833 C 244.961 384.898, 244.671 386.810, 243.741 386.452 C 242.803 386.090, 242.605 387.626, 242.930 392.737 C 243.266 398.013, 243.486 398.760, 243.930 396.135 L 244.500 392.770 246.405 394.885 C 247.453 396.048, 247.838 397, 247.261 397 C 246.684 397, 246.276 398.125, 246.356 399.499 C 246.435 400.874, 246.580 401.999, 246.677 401.999 C 247.465 402.002, 249.826 395.527, 249.329 394.724 C 248.961 394.127, 249.179 393.992, 249.845 394.405 C 251.390 395.359, 251.321 393.726, 249.750 392.133 C 248.748 391.117, 248.897 390.573, 250.500 389.390 C 251.600 388.578, 252.538 387.596, 252.584 387.207 C 252.706 386.175, 254.808 381.117, 257.109 376.316 C 258.212 374.015, 259.172 371.090, 259.243 369.816 C 259.314 368.542, 259.963 366.612, 260.686 365.527 C 261.409 364.443, 262 362.939, 262 362.185 C 262 361.432, 262.900 359.671, 264 358.273 C 265.100 356.874, 266 355.212, 266 354.579 C 266 352.775, 262.061 353.233, 261.466 355.106 M 271.250 357.665 C 269.462 359.597, 268 361.986, 268 362.974 C 268 364.951, 265.561 373.522, 263.439 379 C 262.694 380.925, 261.558 384.525, 260.915 387 C 260.272 389.475, 258.904 393.408, 257.873 395.739 C 255.910 400.182, 255.278 403.688, 256.904 401.121 C 257.504 400.174, 257.739 400.682, 257.654 402.750 C 257.585 404.428, 257.060 405.576, 256.465 405.348 C 255.198 404.862, 251.711 411.724, 252.542 413.069 C 252.859 413.581, 252.685 414, 252.157 414 C 251.628 414, 250.743 415.300, 250.189 416.888 C 249.317 419.388, 249.472 419.928, 251.341 420.907 C 253.356 421.963, 253.311 422.012, 250.665 421.642 C 248.296 421.310, 247.911 421.553, 248.322 423.122 C 248.591 424.154, 248.407 425.249, 247.911 425.555 C 247.416 425.861, 246.546 426.980, 245.978 428.041 C 245.037 429.799, 245.171 429.886, 247.472 429.010 C 249.211 428.350, 250 428.387, 250 429.132 C 250 429.727, 250.675 429.955, 251.500 429.638 C 253.617 428.826, 253.363 430.245, 251.035 432.238 C 249.954 433.164, 248.826 433.527, 248.528 433.046 C 248.231 432.565, 248.553 431.969, 249.244 431.722 C 249.935 431.476, 250.201 430.951, 249.836 430.556 C 249.470 430.161, 248.149 430.385, 246.899 431.054 C 242.364 433.481, 240.976 435.568, 240.771 440.264 C 240.587 444.493, 239.090 446.059, 238.930 442.191 C 238.873 440.828, 238.705 440.887, 238.063 442.500 C 237.240 444.566, 237.575 451.908, 238.536 452.869 C 238.835 453.168, 239.339 452.420, 239.656 451.206 C 240.278 448.829, 241.483 448.354, 242.542 450.068 C 242.905 450.656, 243.818 450.900, 244.570 450.612 C 245.322 450.323, 261.364 449.796, 280.218 449.440 C 299.073 449.085, 314.826 448.596, 315.225 448.353 C 315.624 448.111, 319.571 447.905, 323.996 447.895 C 329.466 447.883, 331.830 447.534, 331.379 446.804 C 330.915 446.054, 322.419 445.949, 303.108 446.456 C 255.828 447.698, 246.030 447.668, 247.175 446.289 C 247.907 445.407, 252.960 445.092, 265.344 445.156 C 274.780 445.205, 289.925 445.205, 299 445.156 L 315.500 445.066 315.500 442.116 C 315.500 440.494, 315.166 438.833, 314.759 438.425 C 314.351 438.018, 314.527 437.070, 315.150 436.319 C 316.054 435.230, 315.924 435.092, 314.505 435.636 C 313.230 436.126, 312.872 435.920, 313.239 434.909 C 313.520 434.134, 314.256 433.613, 314.875 433.750 C 315.494 433.888, 316 432.902, 316 431.559 C 316 430.216, 316.428 428.854, 316.951 428.531 C 317.473 428.207, 317.653 426.268, 317.349 424.222 C 316.443 418.107, 316.105 415.728, 315.473 411 C 315.143 408.525, 314.226 404.181, 313.436 401.346 C 312.646 398.511, 312 395.051, 312 393.656 C 312 392.261, 310.886 388.032, 309.525 384.259 C 308.164 380.485, 305.888 373.385, 304.466 368.480 C 303.045 363.576, 301.404 358.986, 300.819 358.281 C 300.234 357.577, 298.123 356.995, 296.128 356.989 C 294.132 356.983, 290.291 356.308, 287.591 355.489 C 281.320 353.587, 280 353.616, 280 355.655 C 280 357.195, 279.873 357.195, 278.171 355.655 C 275.687 353.407, 275.007 353.605, 271.250 357.665 M 308.618 354.809 C 308.006 355.799, 310.792 365.741, 317.171 385.334 C 319.827 393.493, 322 400.839, 322 401.658 C 322 402.477, 323.145 406.559, 324.545 410.729 C 326.293 415.936, 326.767 418.633, 326.059 419.341 C 325.350 420.050, 325.541 420.941, 326.669 422.186 C 327.695 423.320, 327.868 424, 327.129 424 C 325.531 424, 328.420 429.576, 330.670 430.835 C 332.181 431.681, 332.140 431.896, 330.245 433.079 C 328.305 434.290, 328.257 434.597, 329.600 437.194 C 330.862 439.634, 330.863 440, 329.609 440 C 328.816 440, 327.978 439.663, 327.747 439.250 C 327.517 438.837, 327.484 439.113, 327.675 439.861 C 327.892 440.711, 327.470 441.011, 326.555 440.659 C 325.348 440.196, 325.277 440.515, 326.158 442.448 C 327.531 445.461, 333.496 445.810, 335.018 442.966 C 336.298 440.574, 336.286 433.295, 335 432.500 C 334.450 432.160, 334.007 430.896, 334.015 429.691 C 334.028 427.910, 334.212 427.781, 335 429 C 335.755 430.169, 335.973 429.893, 335.985 427.750 C 335.994 426.102, 335.460 425, 334.652 425 C 332.741 425, 329.648 417.684, 330.467 415.103 C 330.856 413.879, 330.477 411.658, 329.570 409.839 C 328.706 408.109, 327.986 405.749, 327.968 404.596 C 327.951 403.443, 327.276 401.626, 326.468 400.559 C 325.661 399.491, 325 398.058, 325 397.374 C 325 396.690, 324.500 394.863, 323.888 393.315 C 323.276 391.767, 322.665 388.946, 322.530 387.047 C 322.394 385.148, 321.767 383.422, 321.136 383.212 C 320.504 383.001, 320.205 382.477, 320.471 382.046 C 320.738 381.616, 320.265 378.842, 319.422 375.882 C 318.578 372.922, 317.778 369.797, 317.643 368.939 C 317.376 367.229, 315.568 362.325, 313.336 357.250 C 311.987 354.184, 309.727 353.015, 308.618 354.809 M 238.550 370.500 C 238.793 377.650, 238.994 385.863, 238.996 388.750 C 238.998 391.637, 239.364 394, 239.808 394 C 240.698 394, 240.281 380.506, 238.958 366.500 C 238.178 358.238, 238.144 358.566, 238.550 370.500 M 342.188 359.063 C 342.428 359.784, 343.216 360.572, 343.938 360.813 C 344.688 361.063, 345.063 360.688, 344.813 359.938 C 344.572 359.216, 343.784 358.428, 343.063 358.188 C 342.313 357.938, 341.938 358.313, 342.188 359.063 M 131.733 367.116 C 130.325 369.590, 130.087 371.568, 130.560 376.860 C 130.886 380.512, 131.519 384.400, 131.967 385.500 C 132.416 386.600, 133.269 392.450, 133.864 398.500 C 135.398 414.088, 137.046 425.206, 138.134 427.291 C 138.647 428.276, 138.797 429.519, 138.467 430.053 C 138.137 430.588, 138.518 432.333, 139.315 433.930 C 140.217 435.738, 140.410 437.190, 139.827 437.773 C 138.865 438.735, 139.706 443.908, 140.858 444.116 C 141.211 444.179, 143.863 444.353, 146.750 444.501 L 152 444.771 151.936 440.136 C 151.847 433.738, 149.617 423.706, 148.177 423.226 C 147.523 423.008, 147.206 422.475, 147.474 422.042 C 147.741 421.610, 146.883 417.036, 145.567 411.878 C 144.251 406.720, 142.856 400.475, 142.466 398 C 141.321 390.720, 141.124 389.835, 139.014 382.503 C 137.906 378.655, 137 374.530, 137 373.337 C 137 372.143, 136.540 371.013, 135.979 370.826 C 135.417 370.639, 134.855 369.027, 134.729 367.245 C 134.444 363.217, 133.964 363.197, 131.733 367.116 M 241 366.559 C 241 367.966, 241.408 368.866, 241.906 368.558 C 242.404 368.250, 242.577 367.098, 242.289 365.999 C 241.570 363.247, 241 363.495, 241 366.559 M 357.976 368.083 C 357.963 370.512, 357.553 374.221, 357.065 376.325 C 356.186 380.112, 356.197 380.132, 358.188 378.330 C 359.894 376.786, 360.125 375.628, 359.709 370.698 C 359.115 363.646, 358.009 361.978, 357.976 368.083 M 220.421 399.765 C 219.703 400.255, 219.409 406.674, 219.541 419 L 219.740 437.500 223.620 437.500 L 227.500 437.500 227.151 419 C 226.958 408.825, 226.594 400.163, 226.342 399.750 C 225.755 398.793, 221.834 398.803, 220.421 399.765 M 196.668 404.186 C 196.886 406.559, 197.284 415.236, 197.552 423.470 C 197.820 431.703, 198.441 438.841, 198.932 439.332 C 200.605 441.005, 205.483 438.543, 205.699 435.918 C 205.947 432.888, 206.403 430.788, 207.090 429.500 C 207.383 428.950, 207.545 427.488, 207.448 426.250 C 207.352 425.012, 207.774 423.993, 208.387 423.985 C 209.023 423.976, 208.920 423.602, 208.145 423.110 C 207.025 422.401, 207.078 421.810, 208.452 419.713 C 209.490 418.130, 210.333 414.081, 210.692 408.956 L 211.267 400.738 204.698 401.233 C 201.084 401.505, 197.710 401.310, 197.200 400.800 C 196.629 400.229, 196.424 401.532, 196.668 404.186 M 268.372 423.615 C 266.402 425.665, 266.376 425.865, 268.028 426.297 C 269.332 426.638, 269.948 426.056, 270.318 424.132 C 270.596 422.684, 270.751 421.477, 270.662 421.449 C 270.573 421.422, 269.542 422.396, 268.372 423.615 M 258.250 429.551 C 255.912 432.040, 254 434.708, 254 435.479 C 254 436.251, 253.578 437.142, 253.063 437.461 C 252.548 437.779, 251.458 439.381, 250.640 441.020 C 248.737 444.835, 250.472 445.046, 254.594 441.501 C 256.193 440.127, 257.837 439.002, 258.250 439.001 C 258.663 439.001, 259 438.528, 259 437.952 C 259 437.376, 260.238 435.761, 261.750 434.364 C 263.540 432.711, 263.889 432.019, 262.750 432.381 C 260.778 433.008, 260.309 431.203, 262.250 430.457 C 263.515 429.971, 264.333 424.989, 263.144 425.013 C 262.790 425.020, 260.587 427.062, 258.250 429.551 M 271.192 431.075 C 271.389 431.666, 271.978 432.150, 272.500 432.150 C 273.022 432.150, 273.611 431.666, 273.808 431.075 C 274.005 430.484, 273.417 430, 272.500 430 C 271.583 430, 270.995 430.484, 271.192 431.075 M 273.835 435.771 C 272.919 435.960, 271.910 436.793, 271.591 437.622 C 271.141 438.797, 271.509 438.978, 273.256 438.441 C 276.010 437.595, 276.303 437.351, 275.854 436.277 C 275.659 435.810, 274.751 435.582, 273.835 435.771 M 243.191 440.460 C 243.263 442.363, 243.738 443.662, 244.248 443.347 C 244.757 443.032, 244.961 441.959, 244.700 440.962 C 244.375 439.717, 244.661 439.316, 245.613 439.682 C 246.376 439.975, 247 439.764, 247 439.214 C 247 438.374, 244.796 437, 243.449 437 C 243.235 437, 243.119 438.557, 243.191 440.460 M 197.195 442.500 C 197.215 444.150, 197.439 444.704, 197.693 443.731 C 197.947 442.758, 197.930 441.408, 197.656 440.731 C 197.382 440.054, 197.175 440.850, 197.195 442.500 M 385.268 446.255 C 385.533 446.946, 385.131 448.088, 384.375 448.795 C 383.235 449.859, 383 449.690, 383 447.804 C 383 445.942, 382.629 446.223, 380.951 449.353 C 379.432 452.187, 379.184 453.516, 379.993 454.491 C 380.704 455.348, 380.732 455.926, 380.074 456.153 C 379.446 456.369, 379.407 457.053, 379.971 457.960 C 381.354 460.187, 385.232 456.395, 384.449 453.582 C 384.024 452.058, 384.126 451.871, 384.827 452.885 C 385.603 454.007, 386 453.869, 386.917 452.156 C 388.152 449.847, 387.385 445, 385.785 445 C 385.235 445, 385.003 445.565, 385.268 446.255 M 140.997 447.002 C 139.488 447.935, 143.265 448.968, 148.250 448.986 C 151.923 449, 153.697 447.527, 150.250 447.327 C 149.287 447.271, 147.074 447.013, 145.331 446.753 C 143.589 446.494, 141.638 446.606, 140.997 447.002 M 239.473 447.044 C 239.148 447.570, 239.809 448, 240.941 448 C 243.356 448, 243.599 447.444, 241.532 446.651 C 240.725 446.341, 239.798 446.518, 239.473 447.044 M 218.899 448.693 C 218.426 452.478, 218.648 458.999, 219.250 458.999 C 219.662 459, 220 459.477, 220 460.059 C 220 460.641, 219.533 460.829, 218.962 460.476 C 218.274 460.051, 217.994 462.306, 218.132 467.167 C 218.246 471.200, 218.268 476.525, 218.180 479 C 217.911 486.544, 217.985 486.773, 220.820 487.154 C 222.294 487.353, 224.492 487.371, 225.705 487.194 C 227.899 486.874, 227.909 486.776, 227.705 467.686 L 227.500 448.500 223.250 448.193 C 220.912 448.023, 218.955 448.248, 218.899 448.693 M 139.539 450.938 C 138.629 452.409, 138.017 465.157, 138.794 466.450 C 139.661 467.893, 139.770 472.372, 138.965 473.500 C 137.462 475.607, 137.285 481.582, 138.647 484.250 C 140.292 487.471, 142 487.853, 142 485 C 142 482.270, 144.157 482.489, 147.465 485.555 C 148.982 486.961, 150.475 487.858, 150.783 487.550 C 151.831 486.502, 152.865 452.532, 151.879 451.546 C 150.659 450.326, 140.234 449.812, 139.539 450.938 M 199.667 450.667 C 198.431 451.902, 198.988 453.219, 200.500 452.638 C 201.325 452.322, 202 452.451, 202 452.924 C 202 453.398, 201.267 454.067, 200.371 454.411 C 199.096 454.900, 198.861 455.929, 199.292 459.139 C 199.595 461.396, 200.394 463.750, 201.068 464.371 C 201.982 465.213, 202.127 465.204, 201.640 464.334 C 201.280 463.693, 201.438 461.979, 201.990 460.527 C 202.721 458.604, 202.687 458.075, 201.867 458.582 C 201.179 459.008, 200.937 458.738, 201.245 457.889 C 201.523 457.125, 202.149 456.577, 202.638 456.671 C 203.126 456.765, 203.551 455.302, 203.583 453.421 C 203.626 450.882, 203.215 450, 201.987 450 C 201.078 450, 200.033 450.300, 199.667 450.667 M 286 451.104 C 278.575 451.436, 272.486 451.773, 272.468 451.854 C 272.169 453.224, 271.767 458.698, 271.650 463 C 271.508 468.190, 271.637 468.501, 273.924 468.522 C 275.257 468.534, 276.529 469.209, 276.750 470.022 C 277.072 471.205, 276.965 471.233, 276.215 470.165 C 275.482 469.123, 275.162 469.272, 274.749 470.851 C 274.444 472.017, 274.776 473.084, 275.533 473.374 C 276.254 473.651, 276.622 474.729, 276.350 475.769 C 275.924 477.397, 279.491 486, 280.592 486 C 280.806 486, 280.935 482.738, 280.879 478.750 C 280.823 474.762, 281.345 470.150, 282.040 468.500 C 282.734 466.850, 283.210 464.544, 283.096 463.376 C 282.983 462.208, 283.590 460.553, 284.445 459.698 C 285.300 458.843, 286 457.730, 286 457.226 C 286 455.959, 289.397 453, 290.852 453 C 291.682 453, 291.581 453.709, 290.520 455.330 C 288.756 458.022, 289.350 459, 292.750 459 C 294.235 459, 295.007 459.480, 294.751 460.246 C 294.206 461.882, 287.201 463.039, 286.631 461.588 C 286.396 460.990, 286.222 461.400, 286.243 462.500 C 286.265 463.600, 286.166 464.950, 286.023 465.500 C 285.452 467.696, 286.077 468.908, 287.500 468.362 C 288.450 467.997, 289 468.375, 289 469.393 C 289 470.277, 289.498 471, 290.107 471 C 290.716 471, 290.976 470.380, 290.685 469.621 C 290.235 468.450, 290.844 468.450, 294.737 469.621 C 297.256 470.380, 300.371 471, 301.659 471 C 302.947 471, 304.045 471.563, 304.100 472.250 C 304.155 472.938, 304.560 472.375, 305 471 C 306.145 467.425, 306.145 466, 305 466 C 304.450 466, 304.113 466.506, 304.250 467.125 C 304.387 467.744, 303.938 468.456, 303.252 468.708 C 302.329 469.046, 302.235 468.556, 302.892 466.833 C 303.586 465.009, 304.438 464.553, 306.794 464.741 C 309.361 464.946, 309.731 464.687, 309.287 462.991 C 309.001 461.896, 308.279 461, 307.683 461 C 306.952 461, 306.979 460.621, 307.765 459.835 C 308.652 458.948, 308.521 458.338, 307.215 457.280 C 305.665 456.023, 305.701 455.987, 307.597 456.898 C 309.868 457.990, 312 456.716, 312 454.268 C 312 453.535, 313.012 452.529, 314.250 452.031 C 316.357 451.184, 316.373 451.112, 314.500 450.900 C 310.418 450.436, 299.113 450.517, 286 451.104 M 242 453.139 C 242 453.612, 243.125 454, 244.500 454 C 245.875 454, 247 453.827, 247 453.617 C 247 453.406, 245.875 453.018, 244.500 452.755 C 243.125 452.492, 242 452.665, 242 453.139 M 253.250 452.804 C 252.012 452.988, 251 453.495, 251 453.931 C 251 454.366, 252.125 454.508, 253.500 454.245 C 256.467 453.677, 256.890 455.583, 254 456.500 C 252.900 456.849, 252 457.518, 252 457.986 C 252 458.454, 251.755 459.475, 251.456 460.255 C 251.050 461.311, 251.873 461.709, 254.680 461.814 C 256.753 461.892, 259.680 462.866, 261.184 463.978 C 264.450 466.392, 266 466.550, 266 464.468 C 266 462.780, 262.223 460.988, 260.250 461.738 C 259.102 462.175, 258.891 461.830, 258.600 459.041 C 258.445 457.551, 265.037 453.077, 266.539 453.653 C 267.276 453.936, 268.693 453.682, 269.689 453.089 C 271.069 452.267, 269.596 452.065, 263.500 452.239 C 259.100 452.365, 254.488 452.619, 253.250 452.804 M 264.015 457.191 C 264.024 457.911, 264.467 459.175, 265 460 C 265.788 461.219, 265.972 461.090, 265.985 459.309 C 265.993 458.104, 265.550 456.840, 265 456.500 C 264.450 456.160, 264.007 456.471, 264.015 457.191 M 261.570 472.886 C 261.269 473.374, 261.943 474.013, 263.068 474.308 C 264.746 474.746, 264.902 474.587, 263.935 473.421 C 262.554 471.757, 262.303 471.701, 261.570 472.886 M 252 475 L 248.500 475.737 252 475.769 C 253.925 475.786, 256.625 475.440, 258 475 L 260.500 474.199 258 474.231 C 256.625 474.249, 253.925 474.595, 252 475 M 397.515 475.193 C 396.971 476.538, 396.320 476.692, 394.349 475.943 C 392.888 475.387, 391.177 475.363, 390.185 475.885 C 389.258 476.371, 386.975 476.644, 385.111 476.490 C 382.671 476.289, 382.112 476.485, 383.111 477.192 C 384.150 477.926, 383.950 478.054, 382.315 477.697 C 380.542 477.311, 379.007 478.531, 378.999 480.332 C 378.999 480.424, 381.579 480.500, 384.733 480.500 C 392.439 480.500, 393.093 482.795, 386.298 485.991 C 383.659 487.233, 381.050 488.326, 380.500 488.422 C 379.950 488.518, 378.517 489.137, 377.316 489.798 C 376.114 490.459, 374.539 491.008, 373.816 491.017 C 373.092 491.027, 371.440 492.152, 370.145 493.517 C 368.850 494.883, 367.114 496, 366.288 496 C 365.418 496, 365.010 496.584, 365.318 497.387 C 365.692 498.360, 365.276 498.623, 363.925 498.270 C 362.866 497.993, 362 498.222, 362 498.778 C 362 500.003, 370.360 500.981, 370.835 499.812 C 371.020 499.359, 371.611 499.259, 372.148 499.592 C 372.686 499.924, 373.933 499.466, 374.918 498.574 C 376.045 497.555, 377.415 497.216, 378.605 497.663 C 380.192 498.259, 380.303 498.132, 379.286 496.878 C 378.313 495.679, 378.412 495.092, 379.786 493.917 C 382.183 491.868, 390.622 488.003, 392.739 487.985 C 395.588 487.960, 396.850 486.675, 398.432 482.192 C 399.409 479.423, 399.626 477.197, 399.062 475.733 C 398.314 473.795, 398.110 473.724, 397.515 475.193 M 256 478.096 C 253.735 479.377, 251.089 479.975, 248.500 479.788 C 244.823 479.523, 244.500 479.702, 244.500 482 C 244.500 484.283, 244.841 484.479, 248.425 484.260 C 250.709 484.120, 253.246 483.178, 254.490 482.010 C 255.666 480.904, 257.054 480, 257.574 480 C 258.094 480, 259.081 479.100, 259.768 478 C 261.310 475.530, 260.497 475.551, 256 478.096 M 145.015 496.750 C 145.024 497.163, 145.454 498.169, 145.971 498.987 C 146.710 500.156, 146.875 499.996, 146.743 498.237 C 146.594 496.255, 144.977 494.863, 145.015 496.750 M 219.821 498.693 C 219.194 501.528, 219.660 516.999, 220.372 516.999 C 220.852 517, 220.627 517.761, 219.872 518.692 C 218.940 519.842, 218.901 520.143, 219.750 519.633 C 220.438 519.220, 221 519.332, 221 519.882 C 221 520.432, 220.528 521.174, 219.951 521.530 C 219.233 521.974, 219.269 522.619, 220.063 523.576 C 220.702 524.345, 220.980 525.611, 220.681 526.389 C 220.344 527.266, 220.960 528.018, 222.304 528.369 C 224.450 528.930, 224.452 528.950, 222.485 530.436 C 221.393 531.261, 220.950 531.958, 221.500 531.984 C 222.050 532.009, 221.825 532.508, 221 533.091 C 219.865 533.894, 219.806 534.276, 220.756 534.662 C 221.447 534.942, 221.758 535.582, 221.447 536.085 C 221.136 536.588, 222.726 537, 224.979 537 L 229.076 537 228.664 517.750 L 228.253 498.500 224.126 498.193 C 221.857 498.023, 219.920 498.248, 219.821 498.693 M 141 501.568 C 138.127 502.619, 137.903 502.881, 139.750 503.035 C 145.232 503.491, 146.374 503.378, 146.718 502.345 C 147.317 500.550, 144.742 500.200, 141 501.568 M 374.750 503.410 C 372.688 503.929, 371 504.723, 371 505.176 C 371 506.665, 374.964 510, 376.750 510.014 C 377.712 510.021, 379.406 510.271, 380.513 510.568 C 382.235 511.031, 382.524 510.631, 382.513 507.805 C 382.502 504.902, 382.787 504.540, 384.861 504.832 C 386.477 505.059, 387.080 504.744, 386.774 503.832 C 386.244 502.254, 380.191 502.042, 374.750 503.410 M 246 504 C 245.175 504.533, 244.950 504.983, 245.500 505 C 246.050 505.017, 245.825 505.467, 245 506 C 243.892 506.716, 243.845 506.973, 244.821 506.985 C 246.136 507, 249 504.661, 249 503.571 C 249 502.719, 247.692 502.906, 246 504 M 277 503.883 C 277 504.369, 277.926 505.009, 279.057 505.305 C 280.745 505.746, 280.903 505.588, 279.935 504.421 C 278.614 502.830, 277 502.535, 277 503.883 M 286.079 514.128 C 286.036 515.023, 286.788 516.373, 287.750 517.128 C 289.271 518.320, 289.354 518.303, 288.384 517 C 287.771 516.175, 287.019 514.825, 286.713 514 C 286.249 512.745, 286.145 512.766, 286.079 514.128 M 382 518.902 C 383.925 520.576, 385.841 521.958, 386.258 521.973 C 387.516 522.018, 384.717 518.171, 383.050 517.564 C 382.197 517.253, 380.825 516.742, 380 516.428 C 379.175 516.114, 380.075 517.227, 382 518.902 M 257 532.469 C 257 533.361, 257.587 533.712, 258.494 533.364 C 259.316 533.048, 259.740 532.388, 259.435 531.895 C 258.563 530.483, 257 530.851, 257 532.469 M 348 536.446 C 348 536.756, 354.630 540.270, 362.732 544.255 C 380.898 553.188, 380.998 553.244, 381.008 554.487 C 381.012 555.044, 382.076 555.992, 383.373 556.592 C 385.424 557.543, 385.669 557.450, 385.258 555.879 C 384.468 552.856, 378.169 548.839, 367.068 544.279 C 357.238 540.240, 350.539 537.325, 348.750 536.308 C 348.337 536.074, 348 536.136, 348 536.446 M 372.543 541.931 C 372.226 542.443, 372.494 543.187, 373.138 543.585 C 373.923 544.070, 374.039 543.872, 373.490 542.985 C 372.896 542.023, 373.128 541.835, 374.336 542.299 C 375.251 542.650, 376 542.501, 376 541.969 C 376 540.731, 373.302 540.702, 372.543 541.931 M 249 549.049 C 249 549.760, 248.348 551.063, 247.551 551.944 C 246.750 552.829, 246.442 554.097, 246.863 554.778 C 247.406 555.656, 248.757 554.967, 251.562 552.383 C 253.728 550.387, 254.655 549.042, 253.623 549.394 C 252.591 549.746, 251.129 549.522, 250.373 548.895 C 249.329 548.028, 249 548.065, 249 549.049 M 221.777 549.695 C 221.553 550.138, 221.442 551.175, 221.532 552 C 221.622 552.825, 221.764 554.314, 221.848 555.309 C 221.931 556.304, 222.445 556.843, 222.989 556.507 C 223.555 556.157, 223.723 556.558, 223.382 557.448 C 223.054 558.302, 222.380 559, 221.885 559 C 221.389 559, 221.545 559.900, 222.232 561 C 223.032 562.280, 224.564 563, 226.491 563 L 229.500 563.001 229.419 556.250 L 229.339 549.500 225.762 549.195 C 223.795 549.028, 222.002 549.253, 221.777 549.695 M 365 557.802 C 367.281 559.211, 374.563 560.163, 373.285 558.885 C 372.711 558.311, 370.275 557.625, 367.871 557.359 C 364.948 557.035, 363.997 557.182, 365 557.802 M 262 559 C 260.884 559.721, 261.461 559.973, 264.250 559.985 C 266.313 559.993, 268 559.550, 268 559 C 268 557.726, 263.971 557.726, 262 559 M 247.473 560.044 C 247.148 560.570, 246.009 561, 244.941 561 C 243.873 561, 243 561.486, 243 562.079 C 243 562.771, 244.168 562.913, 246.250 562.474 C 250.241 561.633, 251.644 560.461, 249.599 559.676 C 248.755 559.352, 247.798 559.518, 247.473 560.044 M 376.379 559.804 C 376.704 560.330, 377.990 560.982, 379.235 561.252 C 380.481 561.522, 382.288 562.074, 383.250 562.478 C 384.240 562.895, 385 562.780, 385 562.214 C 385 561.053, 382.695 560.006, 378.644 559.326 C 376.966 559.044, 376.031 559.241, 376.379 559.804" stroke="none" fill="#9093a8" fill-rule="evenodd"/><path d="M 197.401 82.508 C 196.021 83.888, 195.199 85.513, 195.574 86.120 C 196.561 87.717, 194.056 88.967, 189.833 88.985 C 187.817 88.993, 186.017 89.338, 185.833 89.750 C 185.650 90.162, 183.813 91.280, 181.750 92.234 C 178.178 93.885, 176.710 96, 179.136 96 C 179.761 96, 179.086 97.186, 177.636 98.636 C 176.186 100.086, 175 101.865, 175 102.588 C 175 103.312, 173.088 105.228, 170.750 106.846 C 168.412 108.464, 165.558 110.848, 164.408 112.144 C 161.261 115.687, 157 123.952, 157 126.512 C 157 127.755, 156.328 130.060, 155.506 131.636 C 154.685 133.211, 153.981 135.850, 153.942 137.500 C 153.903 139.150, 153.295 143.200, 152.591 146.500 C 150.547 156.075, 151.069 191.793, 153.371 199.890 C 154.370 203.405, 155.258 207.905, 155.344 209.890 C 155.522 214.011, 157.293 216.876, 161.250 219.445 C 162.762 220.427, 164 221.805, 164 222.508 C 164 224.532, 166.989 225.226, 167.063 223.219 C 167.116 221.799, 167.267 221.848, 167.934 223.500 C 169.579 227.579, 170.175 232, 169.079 232 C 168.486 232, 168 231.411, 168 230.691 C 168 229.971, 167.304 228.509, 166.454 227.441 C 165.006 225.623, 164.938 225.753, 165.381 229.500 C 166.046 235.132, 167.800 248.925, 168.306 252.500 C 168.539 254.150, 168.543 254.773, 168.313 253.884 C 167.938 252.431, 167.344 252.472, 162.390 254.297 C 158.279 255.811, 156.487 257.109, 155.323 259.413 C 154.466 261.111, 152.679 263.949, 151.353 265.721 C 150.028 267.492, 147.443 271.767, 145.609 275.221 C 143.776 278.674, 140.939 283.525, 139.306 286 C 137.673 288.475, 135.739 292.075, 135.008 294 C 132.948 299.428, 132.107 299.681, 132.384 294.788 C 132.661 289.881, 135.820 283.500, 137.973 283.500 C 138.721 283.500, 139.521 282.938, 139.750 282.250 C 139.979 281.563, 139.697 281, 139.124 281 C 137.515 281, 133.352 285.892, 131.538 289.915 C 129.868 293.619, 123.209 298.009, 107.250 305.928 C 103.813 307.633, 101 309.227, 101 309.470 C 101 310.249, 108.355 307.270, 113 304.610 C 115.475 303.193, 118.400 301.621, 119.500 301.117 C 120.600 300.613, 123.207 299.030, 125.294 297.600 C 127.381 296.170, 129.255 295, 129.458 295 C 129.660 295, 129.327 296.322, 128.717 297.938 C 128.107 299.554, 127.283 300.675, 126.885 300.429 C 126.487 300.183, 124.563 301.489, 122.610 303.332 C 120.014 305.780, 118.242 306.633, 116.029 306.502 C 114.363 306.403, 113 306.699, 113 307.161 C 113 307.622, 111.907 308, 110.571 308 C 107.865 308, 105 310.367, 105 312.603 C 105 313.406, 104.213 314.356, 103.250 314.714 C 98.438 316.504, 94.089 320.512, 78.252 337.752 C 74.083 342.291, 70.490 345.823, 70.268 345.602 C 70.047 345.380, 71.051 342.859, 72.500 340 C 73.949 337.141, 74.903 334.570, 74.620 334.287 C 74.337 334.004, 71.832 336.144, 69.053 339.042 C 66.274 341.941, 64 343.941, 64 343.487 C 64 343.033, 65.405 340.150, 67.123 337.081 L 70.247 331.500 67.416 334 C 63.423 337.528, 60.608 341.040, 59.850 343.441 C 59.356 345.004, 59.158 344.657, 59.029 342 C 58.888 339.096, 58.713 338.841, 58 340.500 C 57.527 341.600, 57.109 343.717, 57.070 345.205 C 57.012 347.465, 56.445 348.013, 53.619 348.544 C 50.570 349.116, 49.844 349.978, 46.215 357.339 C 44.002 361.828, 40.511 369.325, 38.457 374 C 36.404 378.675, 33.628 384.396, 32.288 386.713 C 28.243 393.712, 18.956 420.469, 14.486 438 C 12.172 447.075, 8.866 458.893, 7.140 464.262 C 4.198 473.408, 4 474.963, 4 488.903 C 4 501.591, 3.709 504.423, 2.022 508.141 C -0.886 514.550, -0.915 537.766, 1.978 544.141 C 3.189 546.809, 3.965 550.699, 3.978 554.168 C 3.990 557.286, 4.273 560.548, 4.607 561.418 C 5.155 562.847, 15.733 563, 114.107 563 C 173.998 563, 223 562.640, 223 562.200 C 223 561.760, 222.460 560.860, 221.800 560.200 C 220.997 559.397, 220.962 559, 221.693 559 C 222.294 559, 223.054 558.302, 223.382 557.448 C 223.723 556.558, 223.555 556.157, 222.989 556.507 C 222.445 556.843, 221.932 556.304, 221.848 555.309 C 221.357 549.474, 221.341 549.500, 225.512 549.500 L 229.500 549.500 229.183 553.917 C 229.009 556.346, 229.130 559.383, 229.452 560.667 C 229.991 562.811, 230.564 563, 236.519 563 C 240.173 563, 243 562.564, 243 562 C 243 561.450, 243.873 561, 244.941 561 C 246.009 561, 247.148 560.570, 247.473 560.044 C 247.798 559.518, 248.755 559.352, 249.599 559.676 C 251.377 560.359, 250.385 561.593, 247.500 562.287 C 246.400 562.552, 276.550 562.813, 314.500 562.869 C 359.374 562.934, 382.976 562.630, 382 562 C 381.175 561.467, 379.739 561.024, 378.809 561.015 C 377.879 561.007, 376.819 560.515, 376.453 559.923 C 376.014 559.213, 376.761 559.010, 378.644 559.326 C 382.580 559.987, 385 561.045, 385 562.107 C 385 562.598, 386.462 562.986, 388.250 562.969 C 391.590 562.936, 391.909 562.643, 397.382 554.579 L 400 550.721 399.930 514.610 C 399.866 481.896, 399.723 478.872, 398.412 482.452 C 396.865 486.675, 395.548 487.960, 392.739 487.985 C 390.622 488.003, 382.183 491.868, 379.786 493.917 C 378.412 495.092, 378.313 495.679, 379.286 496.878 C 380.303 498.132, 380.192 498.259, 378.605 497.663 C 377.415 497.216, 376.045 497.555, 374.918 498.574 C 373.933 499.466, 372.686 499.924, 372.148 499.592 C 371.611 499.259, 371.020 499.359, 370.835 499.812 C 370.360 500.981, 362 500.003, 362 498.778 C 362 498.222, 362.866 497.993, 363.925 498.270 C 365.276 498.623, 365.692 498.360, 365.318 497.387 C 365.010 496.584, 365.418 496, 366.288 496 C 367.114 496, 368.850 494.883, 370.145 493.517 C 371.440 492.152, 373.092 491.027, 373.816 491.017 C 374.539 491.008, 376.114 490.459, 377.316 489.798 C 378.517 489.137, 379.950 488.518, 380.500 488.422 C 381.050 488.326, 383.659 487.233, 386.298 485.991 C 393.097 482.793, 392.439 480.500, 384.722 480.500 C 380.347 480.500, 379.098 480.182, 379.488 479.168 C 379.770 478.436, 380 477.690, 380 477.512 C 380 477.333, 381.012 477.409, 382.250 477.680 C 383.921 478.047, 384.143 477.921, 383.111 477.192 C 382.112 476.485, 382.671 476.289, 385.111 476.490 C 386.975 476.644, 389.258 476.371, 390.185 475.885 C 391.177 475.363, 392.888 475.387, 394.349 475.943 C 396.320 476.692, 396.972 476.538, 397.522 475.193 C 398.144 473.672, 398.307 473.704, 399.125 475.500 C 401.499 480.712, 398.666 464.201, 395.093 452 C 385.490 419.200, 372.868 380.468, 371.259 378.859 C 370.263 377.863, 370.650 388.061, 372.040 399.445 C 372.608 404.101, 372.640 407.760, 372.118 408.282 C 370.281 410.119, 369.628 406.234, 369.391 392.049 C 369.180 379.434, 368.730 375.905, 366.005 365.500 C 364.277 358.900, 362.618 352.267, 362.319 350.760 C 362.021 349.253, 361.382 348.264, 360.899 348.562 C 360.417 348.860, 360.275 348.446, 360.584 347.642 C 361.980 344.003, 354.417 335.643, 343 328.208 C 339.975 326.238, 334.985 322.347, 331.911 319.563 C 325.170 313.457, 319.870 309.759, 310.535 304.650 C 306.666 302.532, 303.275 300.482, 303 300.094 C 302.725 299.705, 299.350 297.686, 295.500 295.606 C 291.650 293.526, 286.746 290.177, 284.603 288.162 C 282.150 285.858, 280.947 285.183, 281.357 286.343 C 282.483 289.527, 283.234 293, 282.797 293 C 282.566 293, 280.605 289.585, 278.439 285.411 C 275.923 280.565, 271.851 275.054, 267.170 270.161 C 263.139 265.948, 259.013 261.376, 258.002 260.002 C 256.990 258.628, 255.875 257.792, 255.522 258.145 C 255.169 258.497, 254.402 263.346, 253.816 268.920 C 252.914 277.510, 252.999 279.935, 254.376 284.842 C 256.767 293.366, 256.553 302.447, 253.898 305.102 C 250.957 308.043, 242.757 311.619, 234.500 313.562 C 222.112 316.477, 203.549 313.608, 190.788 306.806 C 185.820 304.158, 185.194 303.505, 186.066 301.877 C 188.215 297.861, 191.781 296.659, 202.902 296.200 C 214.088 295.739, 218.634 294.234, 216.196 291.796 C 215.538 291.138, 215 290.117, 215 289.527 C 215 288.014, 220.790 285.270, 225.319 284.637 C 227.419 284.344, 231.546 282.505, 234.490 280.551 C 237.434 278.597, 240.531 276.733, 241.373 276.410 C 242.215 276.087, 243.379 274.400, 243.960 272.662 C 244.541 270.923, 247.038 266.809, 249.508 263.520 C 251.979 260.230, 254 257.193, 254 256.770 C 254 255.235, 252.196 256.051, 250.729 258.250 C 249.903 259.488, 248.049 261.850, 246.608 263.500 C 245.167 265.150, 243.751 267.239, 243.461 268.142 C 242.820 270.139, 239.285 271.233, 238.611 269.644 C 238.302 268.915, 237.555 269.210, 236.552 270.455 C 234.325 273.224, 224.834 272.993, 220.885 270.073 C 219.343 268.933, 216.902 268, 215.462 268 C 212.839 268, 205 261.458, 205 259.269 C 205 257.989, 210.050 256.937, 215.763 257.027 C 218.988 257.077, 220.191 256.656, 220.701 255.297 C 221.072 254.309, 222.079 252.952, 222.938 252.282 C 224.241 251.266, 223.836 251.057, 220.500 251.026 C 214.986 250.975, 209 249.178, 209 247.575 C 209 246.844, 208.325 245.685, 207.500 245 C 205.840 243.622, 205.470 241, 206.935 241 C 207.449 241, 209.137 240.484, 210.685 239.854 C 214.473 238.312, 227.052 237.974, 227.602 239.400 C 227.836 240.005, 229.708 240.603, 231.763 240.728 C 233.818 240.853, 237.001 241.218, 238.835 241.539 C 241.682 242.037, 242.116 241.857, 241.800 240.311 C 241.506 238.874, 240.640 238.563, 237.606 238.807 C 235.311 238.991, 233.127 238.539, 232.142 237.676 C 231.239 236.886, 227.829 235.917, 224.565 235.524 C 221.301 235.131, 217.476 234.360, 216.065 233.811 C 214.654 233.262, 211.813 232.826, 209.750 232.843 C 203.509 232.895, 205.020 230.489, 213.355 227.101 C 217.780 225.303, 219.395 225.021, 219.966 225.945 C 220.490 226.794, 220.887 226.540, 221.259 225.119 C 221.893 222.692, 217.137 214.679, 214.097 213.052 C 212.498 212.196, 212.244 211.483, 212.915 209.731 C 214.743 204.962, 217.180 193.039, 217.248 188.535 C 217.309 184.547, 216.863 183.382, 214.410 181.111 C 212.809 179.630, 209.925 177.828, 208 177.108 C 203.013 175.242, 199.763 173.901, 197.764 172.883 C 196.809 172.397, 195.234 171.986, 194.264 171.968 C 193.294 171.951, 191.631 171.279, 190.569 170.475 C 188.678 169.045, 188.689 168.957, 191.069 166.279 C 192.406 164.775, 194.235 162.983, 195.134 162.297 C 196.033 161.610, 197.069 159.350, 197.437 157.274 C 198.546 151.021, 198.955 150.258, 201.783 149.163 C 205.890 147.572, 216.851 145, 219.522 145 C 220.820 145, 222.179 144.519, 222.542 143.931 C 223.347 142.629, 245.413 143.318, 247.265 144.704 C 247.944 145.212, 250.260 145.752, 252.412 145.904 C 254.564 146.057, 256.958 146.815, 257.733 147.591 C 258.509 148.366, 258.893 149, 258.589 149 C 258.284 149, 258.932 150.599, 260.029 152.552 C 261.200 154.637, 262.221 158.755, 262.500 162.517 C 262.762 166.045, 263.415 170.892, 263.953 173.289 C 264.490 175.687, 265.239 185.586, 265.618 195.288 C 265.997 204.990, 266.688 212.693, 267.153 212.405 C 267.619 212.117, 268 210.879, 268 209.653 C 268 208.427, 269.616 203.617, 271.591 198.962 C 273.566 194.308, 275.418 189.713, 275.707 188.750 C 275.997 187.787, 276.568 187, 276.977 187 C 278.137 187, 279.362 176.467, 279.435 165.877 C 279.486 158.306, 279.783 156.363, 280.829 156.764 C 281.870 157.164, 282.024 156.220, 281.540 152.387 C 281.200 149.699, 280.602 143.531, 280.211 138.679 C 279.708 132.454, 279.058 129.609, 278 129.009 C 270.584 124.809, 267.212 120.754, 269.776 119.120 C 271.670 117.912, 269.114 114.220, 265.102 112.369 C 262.851 111.330, 261.040 109.784, 261.026 108.889 C 261.007 107.695, 260.324 107.407, 258.391 107.776 C 256.015 108.230, 255.881 108.090, 256.891 106.203 C 258.520 103.161, 258.375 103, 254 103 C 250.626 103, 250 102.677, 250 100.937 C 250 99.377, 249.457 98.950, 247.771 99.187 C 245.982 99.438, 245.435 98.908, 245 96.500 C 244.702 94.850, 244.159 93.971, 243.795 94.547 C 243.431 95.123, 241.865 95.519, 240.316 95.426 C 236.128 95.176, 236 95.121, 236 93.559 C 236 92.766, 235.474 91.793, 234.830 91.395 C 234.043 90.909, 233.869 91.217, 234.299 92.336 C 235.276 94.882, 233.436 94.314, 231.592 91.500 C 230.386 89.659, 229.073 89, 226.613 89 C 220.090 89, 213.400 87.095, 207.548 83.571 C 204.287 81.607, 201.233 80, 200.763 80 C 200.294 80, 198.780 81.129, 197.401 82.508 M 274.485 136.025 C 274.077 136.684, 274.364 137.609, 275.122 138.080 C 276.785 139.113, 277.681 137.281, 276.225 135.825 C 275.559 135.159, 274.979 135.226, 274.485 136.025 M 277 149.382 C 277 150.207, 277.450 151.160, 278 151.500 C 278.550 151.840, 279 151.443, 279 150.618 C 279 149.793, 278.550 148.840, 278 148.500 C 277.450 148.160, 277 148.557, 277 149.382 M 267 154.774 C 267 155.934, 267.451 157.161, 268.003 157.502 C 268.578 157.857, 268.874 157.253, 268.695 156.087 C 268.257 153.215, 267 152.242, 267 154.774 M 277.015 174.750 C 277.026 176.751, 277.273 177.116, 277.923 176.091 C 278.413 175.316, 278.583 174.078, 278.300 173.341 C 277.489 171.226, 276.999 171.764, 277.015 174.750 M 234.430 178.965 C 233.291 179.426, 231.627 180.921, 230.731 182.288 C 228.828 185.192, 228.974 190.646, 230.943 190.207 C 231.817 190.013, 232.077 190.598, 231.721 191.957 C 231.287 193.619, 231.662 194, 233.733 194 C 235.134 194, 236.877 193.213, 237.608 192.250 C 238.819 190.655, 238.939 190.648, 238.968 192.171 C 239.009 194.337, 244.519 195.644, 246.541 193.966 C 248.426 192.402, 248.407 191, 246.500 191 C 245.675 191, 245 190.612, 245 190.139 C 245 188.677, 249.783 190.103, 251.595 192.105 C 253.844 194.590, 256.921 194.815, 254.872 192.345 C 253.001 190.089, 247.731 188, 243.910 188 C 241.219 188, 240.938 187.779, 242 186.500 C 243.024 185.266, 242.942 185, 241.539 185 C 238.276 185, 240.663 182.494, 244.818 181.558 C 247.118 181.040, 249 180.027, 249 179.308 C 249 177.805, 237.939 177.544, 234.430 178.965 M 197.638 188.500 C 197.300 189.382, 195.800 190, 193.996 190 C 191.240 190, 191.038 190.202, 192 192 C 192.840 193.570, 194.094 194, 197.835 194 C 204.278 194, 205.686 192.448, 202.032 189.374 C 198.717 186.584, 198.398 186.521, 197.638 188.500 M 199 196.065 C 197.625 196.469, 192.168 196.845, 186.872 196.900 C 180.016 196.971, 176.916 197.396, 176.102 198.377 C 174.523 200.280, 175.650 210.758, 177.798 214.144 C 180.137 217.830, 186.844 223, 189.287 223 C 190.451 223, 193.980 220.238, 197.661 216.447 C 206.630 207.209, 207.362 205.897, 206.553 200.502 C 206.181 198.026, 205.568 195.966, 205.189 195.923 C 204.810 195.881, 203.825 195.730, 203 195.588 C 202.175 195.445, 200.375 195.660, 199 196.065 M 232.468 196.948 C 233.434 198.511, 240.854 201.948, 243.327 201.978 C 244.771 201.995, 244.518 201.465, 242.115 199.443 C 238.829 196.678, 231.059 194.668, 232.468 196.948 M 168.624 202.750 C 168.003 204.880, 167.753 209.823, 167.929 216.500 C 168.040 220.697, 168.240 221.191, 169.178 219.576 C 170.614 217.101, 173.935 202.268, 173.214 201.548 C 172.010 200.343, 169.104 201.104, 168.624 202.750 M 158.684 205.750 C 158.446 206.162, 158.612 207.400, 159.055 208.500 C 159.757 210.246, 159.868 210.151, 159.930 207.750 C 159.999 205.037, 159.531 204.286, 158.684 205.750 M 206.459 212.067 C 205.515 213.594, 206.262 214.006, 208.782 213.347 C 209.990 213.031, 210.731 212.374, 210.430 211.886 C 209.674 210.664, 207.258 210.773, 206.459 212.067 M 225.166 218.876 C 224.102 219.551, 224.169 219.851, 225.498 220.361 C 228.382 221.467, 231 221.058, 231 219.500 C 231 217.862, 227.378 217.474, 225.166 218.876 M 290.027 295.209 C 289.981 296.407, 295.437 305, 296.243 305 C 298.061 305, 296.727 301.677, 293.527 298.235 C 291.617 296.181, 290.042 294.819, 290.027 295.209 M 278.697 314.792 C 279.376 315.223, 279.553 316.105, 279.106 316.829 C 278.278 318.168, 275.927 318.082, 274.895 316.676 C 274.563 316.223, 273.509 316.633, 272.555 317.588 C 271.094 319.049, 270.677 319.100, 269.925 317.912 C 269.433 317.135, 269.031 316.950, 269.031 317.500 C 269.031 318.050, 269.508 319.175, 270.091 320 C 270.890 321.129, 271.278 321.191, 271.659 320.250 C 272.596 317.942, 274.231 318.942, 273.605 321.439 C 273.268 322.780, 273.455 324.163, 274.021 324.513 C 274.587 324.863, 274.985 324.778, 274.906 324.324 C 274.552 322.283, 275.120 321.977, 276.571 323.429 C 278 324.857, 277.984 325.159, 276.393 326.750 C 274.774 328.369, 274.768 328.524, 276.321 328.823 C 277.245 329.001, 278 329.543, 278 330.026 C 278 330.510, 279.599 331.665, 281.554 332.592 C 283.772 333.645, 284.911 334.790, 284.585 335.639 C 284.298 336.388, 284.446 337, 284.915 337 C 285.383 337, 286.014 337.945, 286.316 339.101 C 286.685 340.513, 287.297 340.942, 288.183 340.409 C 289.272 339.753, 289.272 339.898, 288.182 341.242 C 287.024 342.671, 287.327 342.997, 290.682 343.929 C 295.879 345.372, 303.527 345.275, 304.793 343.750 C 305.593 342.786, 304.968 342.517, 302.059 342.575 C 297.196 342.673, 294 341.466, 294 339.532 C 294 338.690, 293.433 338, 292.741 338 C 292.048 338, 290.839 336.988, 290.053 335.750 C 287.607 331.896, 287.920 326.648, 290.536 327.652 C 291.623 328.069, 291.661 328.570, 290.722 330.073 C 289.763 331.610, 289.866 332.294, 291.270 333.698 C 292.221 334.650, 293 334.920, 293 334.298 C 293 333.676, 292.438 332.940, 291.750 332.662 C 291.063 332.385, 291.561 332.122, 292.857 332.079 C 294.395 332.027, 295.041 332.450, 294.717 333.295 C 294.379 334.175, 295.066 334.537, 296.860 334.424 C 301.615 334.125, 302 334.012, 302 332.917 C 302 332.321, 301.442 332.019, 300.759 332.247 C 300.076 332.475, 298.938 332.081, 298.230 331.373 C 297.522 330.665, 296.280 330.339, 295.471 330.649 C 292.640 331.736, 294.028 329.476, 297 328.160 C 298.650 327.430, 300 326.476, 300 326.041 C 300 325.082, 294.956 324, 290.482 324 C 288.533 324, 286.987 323.408, 286.651 322.534 C 286.208 321.377, 286.713 321.193, 289.044 321.659 C 290.670 321.984, 292 322.013, 292 321.724 C 292 320.951, 284.635 316.589, 283.722 316.821 C 283.294 316.930, 282.684 316.339, 282.365 315.509 C 282.047 314.679, 280.822 314.007, 279.643 314.015 C 278.277 314.025, 277.934 314.307, 278.697 314.792 M 178.750 317.954 C 179.988 318.980, 181 320.341, 181 320.978 C 181 321.658, 181.780 321.887, 182.895 321.533 C 184.013 321.179, 185.467 321.610, 186.442 322.585 C 188.758 324.901, 187.636 325.506, 183.898 323.958 C 181.070 322.786, 180.586 322.846, 179.366 324.514 C 178.615 325.542, 178 325.981, 178 325.491 C 178 325.001, 177.460 325.140, 176.800 325.800 C 174.755 327.845, 173.004 327.145, 172.921 324.250 C 172.878 322.738, 172.609 322.081, 172.324 322.792 C 171.918 323.803, 171.491 323.823, 170.360 322.884 C 169.290 321.996, 168.624 321.976, 167.790 322.810 C 166.957 323.643, 167.120 324.109, 168.417 324.606 C 169.380 324.976, 169.726 325.553, 169.187 325.889 C 168.131 326.547, 167.701 328.938, 167.885 333.130 C 167.964 334.946, 169.361 336.874, 172.404 339.367 L 176.807 342.976 181.561 341.238 C 185.228 339.898, 186.414 339.788, 186.743 340.756 C 186.978 341.447, 187.552 341.777, 188.017 341.490 C 188.482 341.202, 189.545 341.941, 190.379 343.131 C 191.849 345.229, 192.212 345.265, 202.198 344.308 C 207.864 343.765, 218.125 343.225, 225 343.108 C 231.875 342.991, 237.799 342.581, 238.165 342.198 C 238.531 341.814, 238.981 340.375, 239.165 339 C 239.480 336.651, 239.809 336.520, 244.612 336.832 C 249.916 337.176, 249.806 337.254, 251.381 332 C 251.463 331.725, 251.931 330.868, 252.420 330.095 C 253.675 328.114, 254.229 322, 253.154 322 C 252.663 322, 249.464 322.893, 246.045 323.986 C 226.332 330.283, 202.118 328.548, 183.529 319.506 C 179.621 317.605, 177.499 316.916, 178.750 317.954 M 264.710 320 C 264.998 321.100, 265.406 322, 265.617 322 C 265.827 322, 266 321.100, 266 320 C 266 318.900, 265.592 318, 265.094 318 C 264.595 318, 264.423 318.900, 264.710 320 M 300 322.137 C 300 322.646, 300.686 323.326, 301.526 323.648 C 302.702 324.100, 302.788 324.550, 301.903 325.617 C 301.005 326.699, 301.112 327, 302.397 327 C 303.648 327, 303.889 327.594, 303.411 329.500 C 302.859 331.699, 303.105 332, 305.451 332 C 306.918 332, 307.871 331.601, 307.570 331.113 C 307.269 330.626, 307.653 329.703, 308.425 329.062 C 309.528 328.146, 310.270 328.373, 311.902 330.125 C 313.043 331.350, 314.238 333.173, 314.556 334.176 C 314.874 335.179, 315.459 336, 315.855 336 C 316.250 336, 316.646 336.946, 316.733 338.101 C 316.820 339.257, 318.969 344.418, 321.509 349.570 C 324.049 354.722, 326.098 359.177, 326.063 359.469 C 326.029 359.761, 326.788 360.805, 327.750 361.788 C 329.283 363.355, 329.584 363.386, 330.180 362.038 C 330.603 361.080, 330.886 361.735, 330.930 363.776 C 331.019 367.935, 333.286 380, 333.978 380.001 C 334.265 380.001, 334.444 375.613, 334.375 370.251 C 334.266 361.777, 335.472 351.225, 337.450 343.342 C 337.774 342.054, 337.641 341, 337.156 341 C 336.670 341, 335.697 343.813, 334.993 347.250 C 333.201 356.001, 331.432 360, 329.351 360 C 328.048 360, 327.890 359.710, 328.731 358.869 C 329.955 357.645, 329.004 355.475, 323.525 347 C 321.925 344.525, 319.556 340.321, 318.261 337.657 C 315.617 332.221, 315.155 331.599, 309.389 325.703 C 305.575 321.803, 300 319.686, 300 322.137 M 265 323.427 C 265 323.742, 265.916 324.916, 267.036 326.036 C 268.157 327.157, 268.793 328.526, 268.450 329.080 C 268.108 329.634, 268.372 330.743, 269.036 331.544 C 269.887 332.569, 269.913 333, 269.122 333 C 268.505 333, 267.997 334.012, 267.994 335.250 C 267.988 337.311, 267.862 337.260, 266.494 334.636 C 264.742 331.277, 264.643 330.661, 265.989 331.493 C 266.561 331.847, 266.720 331.433, 266.365 330.509 C 265.584 328.473, 265.267 328.829, 262.438 334.937 L 260.100 339.983 262.219 341.117 C 265.461 342.852, 278 346.810, 278 346.098 C 278 345.752, 275.830 344.699, 273.179 343.757 C 268.528 342.105, 262.546 338, 264.790 338 C 265.393 338, 267.506 338.956, 269.486 340.124 C 271.465 341.292, 273.345 341.988, 273.663 341.671 C 274.492 340.842, 273.072 334, 272.071 334 C 271.610 334, 271.018 332.875, 270.755 331.500 C 270.478 330.051, 270.744 328.994, 271.389 328.985 C 272.103 328.975, 272.143 328.707, 271.500 328.235 C 270.950 327.831, 270.002 326.600, 269.393 325.500 C 268.381 323.672, 265 322.077, 265 323.427 M 273.702 331.631 C 273.355 331.979, 273.508 333.081, 274.043 334.081 C 274.578 335.080, 275.134 337.349, 275.277 339.122 C 275.421 340.896, 276.104 342.460, 276.794 342.598 C 277.485 342.737, 277.589 342.621, 277.025 342.342 C 275.404 341.538, 275.833 339.999, 277.500 340.638 C 278.325 340.955, 279 341.814, 279 342.548 C 279 344.200, 279.625 344.577, 283.875 345.489 C 286.241 345.997, 287.046 345.883, 286.566 345.107 C 286.190 344.498, 285.062 344, 284.060 344 C 283.057 344, 281.042 342.433, 279.581 340.517 C 277.913 338.331, 277.497 337.253, 278.462 337.624 C 280.470 338.394, 280.460 336.102, 278.443 333.223 C 276.915 331.041, 274.951 330.382, 273.702 331.631 M 281.372 337.856 C 281.794 341.480, 282.735 343, 284.559 343 C 286.425 343, 286.393 342.780, 283.901 338.557 C 281.362 334.254, 280.939 334.136, 281.372 337.856 M 339.122 337.278 C 337.494 338.906, 337.743 340.458, 339.411 339.074 C 341.541 337.306, 342.269 339.372, 341.054 343.737 C 340.173 346.903, 340.275 347.698, 341.695 348.750 C 343.226 349.884, 343.181 350, 341.210 350 C 338.733 350, 337.514 353.233, 338.207 357.960 C 338.444 359.574, 338.302 360.687, 337.891 360.433 C 336.893 359.816, 336.125 362.800, 336.332 366.487 C 336.448 368.543, 337.090 369.588, 338.393 369.838 C 339.888 370.125, 340.170 369.760, 339.737 368.101 C 339.434 366.945, 339.581 366, 340.062 366 C 340.543 366, 340.678 365.325, 340.362 364.500 C 340.045 363.675, 340.284 363, 340.893 363 C 341.502 363, 342 363.675, 342 364.500 C 342 365.325, 342.450 366, 343 366 C 343.550 366, 344 367.575, 344 369.500 C 344 371.425, 344.450 373, 345 373 C 345.550 373, 345.947 373.337, 345.882 373.750 C 345.556 375.815, 346.118 377.045, 347.107 376.434 C 347.857 375.971, 348.007 376.517, 347.573 378.125 C 347.143 379.716, 347.589 379.344, 348.924 377 C 350.020 375.075, 350.935 372.488, 350.958 371.250 C 350.981 370.012, 351.388 369, 351.862 369 C 352.720 369, 352.663 370.970, 351.653 376.270 C 350.760 380.955, 352.878 378.239, 354.437 372.699 C 355.722 368.134, 356.477 361.494, 356.052 358.500 C 355.974 357.950, 355.317 358.850, 354.593 360.500 C 353.307 363.432, 353.275 363.366, 353.175 357.619 C 353.103 353.479, 352.543 351.157, 351.286 349.777 C 350.304 348.699, 348.370 345.545, 346.988 342.768 C 344.396 337.559, 341.125 335.275, 339.122 337.278 M 241 340.441 C 241 342.398, 241.174 344, 241.387 344 C 242.208 344, 242.621 337.884, 241.833 337.397 C 241.375 337.114, 241 338.484, 241 340.441 M 270.226 338.574 C 271.176 339.568, 272.227 340.107, 272.562 339.771 C 272.897 339.436, 272.120 338.623, 270.836 337.964 C 268.603 336.819, 268.576 336.846, 270.226 338.574 M 295 338.893 C 295 340.026, 297.526 341.009, 300.332 340.968 C 302.453 340.937, 302.458 340.905, 300.559 339.468 C 298.415 337.847, 295 337.493, 295 338.893 M 253 348.656 C 246.967 350.748, 246.578 351.420, 251.870 350.608 C 256.915 349.834, 262.897 347.075, 259.500 347.088 C 258.400 347.092, 255.475 347.798, 253 348.656 M 283.500 348 C 286.249 349.181, 287.828 349.181, 286 348 C 285.175 347.467, 283.825 347.055, 283 347.086 C 282.011 347.122, 282.181 347.433, 283.500 348 M 81.125 349.349 C 79.668 351.105, 77.879 360.589, 78.483 363.352 C 78.742 364.533, 79.167 368.650, 79.428 372.500 C 79.970 380.479, 81.694 386.269, 83.364 385.712 C 83.989 385.504, 84.500 384.846, 84.500 384.250 C 84.500 383.654, 84.775 382.892, 85.111 382.556 C 85.447 382.220, 85.375 380.051, 84.952 377.737 C 84.529 375.422, 84.542 372.847, 84.983 372.014 C 85.626 370.797, 85.517 354.516, 84.830 349.250 C 84.614 347.599, 82.531 347.655, 81.125 349.349 M 262 349.578 C 262 350.295, 262.409 351.135, 262.910 351.444 C 264.275 352.288, 267.139 350.918, 266.709 349.627 C 266.181 348.039, 262 347.995, 262 349.578 M 207.500 353.742 C 201.450 354.442, 195.712 354.829, 194.749 354.601 C 193.638 354.338, 193.252 354.599, 193.694 355.314 C 194.077 355.934, 194.486 358.029, 194.603 359.971 C 194.720 361.912, 195.112 365.750, 195.474 368.500 C 195.837 371.250, 196.216 377.849, 196.317 383.165 C 196.436 389.435, 196.851 392.557, 197.500 392.052 C 198.050 391.624, 201.400 390.986, 204.944 390.632 C 211.562 389.973, 213.101 388.980, 212.896 385.500 C 212.675 381.733, 213 379.667, 213.704 380.371 C 214.091 380.758, 214.483 382.295, 214.575 383.787 C 214.871 388.588, 214.983 389, 216 389 C 216.550 389, 217 388.114, 217 387.031 C 217 385.692, 217.480 385.247, 218.500 385.638 C 220.446 386.385, 220.408 385.551, 218.404 383.546 C 217.455 382.598, 216.648 379.695, 216.415 376.398 C 216.199 373.344, 215.705 370.331, 215.316 369.702 C 214.928 369.074, 214.572 367.084, 214.526 365.280 C 214.464 362.848, 214.874 362, 216.114 362 C 218.196 362, 219.386 364.830, 218.005 366.494 C 217.282 367.365, 217.384 368.074, 218.348 368.874 C 219.177 369.562, 219.604 371.476, 219.427 373.710 C 219.266 375.744, 219.397 377.834, 219.720 378.355 C 220.839 380.167, 220.498 386.257, 219.250 386.735 C 216.432 387.815, 218.284 389.094, 222.250 388.807 C 226.415 388.506, 226.497 388.430, 226.352 385 C 225.868 373.583, 225.177 367.138, 224.260 365.500 C 223.491 364.125, 223.582 363.275, 224.609 362.248 C 226.238 360.619, 226.429 359, 224.992 359 C 224.370 359, 224.430 358.284, 225.149 357.132 C 225.791 356.105, 226.051 354.574, 225.726 353.729 C 225.039 351.937, 223.074 351.938, 207.500 353.742 M 249.500 353 L 246.500 353.763 249.500 353.763 C 251.150 353.763, 253.850 353.420, 255.500 353 L 258.500 352.237 255.500 352.237 C 253.850 352.237, 251.150 352.580, 249.500 353 M 261.466 355.106 C 260.893 356.912, 258.103 357.964, 253.832 357.986 C 252.364 357.994, 250.366 358.306, 249.390 358.680 C 247.960 359.229, 248.282 359.601, 251.058 360.604 L 254.500 361.848 251.309 361.924 C 249.554 361.966, 247.852 362.430, 247.527 362.956 C 247.202 363.482, 246.372 363.696, 245.683 363.432 C 243.888 362.743, 243.831 366.615, 245.615 368.095 C 246.673 368.973, 246.769 369.525, 245.952 370.030 C 245.235 370.473, 244.841 373.751, 244.896 378.833 C 244.961 384.898, 244.671 386.810, 243.741 386.452 C 242.803 386.090, 242.605 387.626, 242.930 392.737 C 243.266 398.013, 243.486 398.760, 243.930 396.135 L 244.500 392.770 246.405 394.885 C 247.453 396.048, 247.838 397, 247.261 397 C 246.684 397, 246.276 398.125, 246.356 399.499 C 246.435 400.874, 246.580 401.999, 246.677 401.999 C 247.465 402.002, 249.826 395.527, 249.329 394.724 C 248.961 394.127, 249.179 393.992, 249.845 394.405 C 251.390 395.359, 251.321 393.726, 249.750 392.133 C 248.748 391.117, 248.897 390.573, 250.500 389.390 C 251.600 388.578, 252.538 387.596, 252.584 387.207 C 252.706 386.175, 254.808 381.117, 257.109 376.316 C 258.212 374.015, 259.172 371.090, 259.243 369.816 C 259.314 368.542, 259.963 366.612, 260.686 365.527 C 261.409 364.443, 262 362.939, 262 362.185 C 262 361.432, 262.900 359.671, 264 358.273 C 265.100 356.874, 266 355.212, 266 354.579 C 266 352.775, 262.061 353.233, 261.466 355.106 M 271.250 357.665 C 269.462 359.597, 268 361.986, 268 362.974 C 268 364.951, 265.561 373.522, 263.439 379 C 262.694 380.925, 261.558 384.525, 260.915 387 C 260.272 389.475, 258.904 393.408, 257.873 395.739 C 255.910 400.182, 255.278 403.688, 256.904 401.121 C 257.504 400.174, 257.739 400.682, 257.654 402.750 C 257.585 404.428, 257.060 405.576, 256.465 405.348 C 255.198 404.862, 251.711 411.724, 252.542 413.069 C 252.859 413.581, 252.685 414, 252.157 414 C 251.628 414, 250.743 415.300, 250.189 416.888 C 249.317 419.388, 249.472 419.928, 251.341 420.907 C 253.356 421.963, 253.311 422.012, 250.665 421.642 C 248.296 421.310, 247.911 421.553, 248.322 423.122 C 248.591 424.154, 248.407 425.249, 247.911 425.555 C 247.416 425.861, 246.546 426.980, 245.978 428.041 C 245.037 429.799, 245.171 429.886, 247.472 429.010 C 249.211 428.350, 250 428.387, 250 429.132 C 250 429.727, 250.675 429.955, 251.500 429.638 C 253.617 428.826, 253.363 430.245, 251.035 432.238 C 249.954 433.164, 248.826 433.527, 248.528 433.046 C 248.231 432.565, 248.553 431.969, 249.244 431.722 C 249.935 431.476, 250.201 430.951, 249.836 430.556 C 249.470 430.161, 248.149 430.385, 246.899 431.054 C 242.364 433.481, 240.976 435.568, 240.771 440.264 C 240.587 444.493, 239.090 446.059, 238.930 442.191 C 238.873 440.828, 238.705 440.887, 238.063 442.500 C 237.240 444.566, 237.575 451.908, 238.536 452.869 C 238.835 453.168, 239.339 452.420, 239.656 451.206 C 240.278 448.829, 241.483 448.354, 242.542 450.068 C 242.905 450.656, 243.818 450.900, 244.570 450.612 C 245.322 450.323, 261.364 449.796, 280.218 449.440 C 299.073 449.085, 314.826 448.596, 315.225 448.353 C 315.624 448.111, 319.571 447.905, 323.996 447.895 C 329.466 447.883, 331.830 447.534, 331.379 446.804 C 330.915 446.054, 322.419 445.949, 303.108 446.456 C 255.828 447.698, 246.030 447.668, 247.175 446.289 C 247.907 445.407, 252.960 445.092, 265.344 445.156 C 274.780 445.205, 289.925 445.205, 299 445.156 L 315.500 445.066 315.500 442.116 C 315.500 440.494, 315.166 438.833, 314.759 438.425 C 314.351 438.018, 314.527 437.070, 315.150 436.319 C 316.054 435.230, 315.924 435.092, 314.505 435.636 C 313.230 436.126, 312.872 435.920, 313.239 434.909 C 313.520 434.134, 314.256 433.613, 314.875 433.750 C 315.494 433.888, 316 432.902, 316 431.559 C 316 430.216, 316.428 428.854, 316.951 428.531 C 317.473 428.207, 317.653 426.268, 317.349 424.222 C 316.443 418.107, 316.105 415.728, 315.473 411 C 315.143 408.525, 314.226 404.181, 313.436 401.346 C 312.646 398.511, 312 395.051, 312 393.656 C 312 392.261, 310.886 388.032, 309.525 384.259 C 308.164 380.485, 305.888 373.385, 304.466 368.480 C 303.045 363.576, 301.404 358.986, 300.819 358.281 C 300.234 357.577, 298.123 356.995, 296.128 356.989 C 294.132 356.983, 290.291 356.308, 287.591 355.489 C 281.320 353.587, 280 353.616, 280 355.655 C 280 357.195, 279.873 357.195, 278.171 355.655 C 275.687 353.407, 275.007 353.605, 271.250 357.665 M 308.618 354.809 C 308.006 355.799, 310.792 365.741, 317.171 385.334 C 319.827 393.493, 322 400.839, 322 401.658 C 322 402.477, 323.145 406.559, 324.545 410.729 C 326.293 415.936, 326.767 418.633, 326.059 419.341 C 325.350 420.050, 325.541 420.941, 326.669 422.186 C 327.695 423.320, 327.868 424, 327.129 424 C 325.531 424, 328.420 429.576, 330.670 430.835 C 332.181 431.681, 332.140 431.896, 330.245 433.079 C 328.305 434.290, 328.257 434.597, 329.600 437.194 C 330.862 439.634, 330.863 440, 329.609 440 C 328.816 440, 327.978 439.663, 327.747 439.250 C 327.517 438.837, 327.484 439.113, 327.675 439.861 C 327.892 440.711, 327.470 441.011, 326.555 440.659 C 325.348 440.196, 325.277 440.515, 326.158 442.448 C 327.531 445.461, 333.496 445.810, 335.018 442.966 C 336.298 440.574, 336.286 433.295, 335 432.500 C 334.450 432.160, 334.007 430.896, 334.015 429.691 C 334.028 427.910, 334.212 427.781, 335 429 C 335.755 430.169, 335.973 429.893, 335.985 427.750 C 335.994 426.102, 335.460 425, 334.652 425 C 332.741 425, 329.648 417.684, 330.467 415.103 C 330.856 413.879, 330.477 411.658, 329.570 409.839 C 328.706 408.109, 327.986 405.749, 327.968 404.596 C 327.951 403.443, 327.276 401.626, 326.468 400.559 C 325.661 399.491, 325 398.058, 325 397.374 C 325 396.690, 324.500 394.863, 323.888 393.315 C 323.276 391.767, 322.665 388.946, 322.530 387.047 C 322.394 385.148, 321.767 383.422, 321.136 383.212 C 320.504 383.001, 320.205 382.477, 320.471 382.046 C 320.738 381.616, 320.265 378.842, 319.422 375.882 C 318.578 372.922, 317.778 369.797, 317.643 368.939 C 317.376 367.229, 315.568 362.325, 313.336 357.250 C 311.987 354.184, 309.727 353.015, 308.618 354.809 M 238.550 370.500 C 238.793 377.650, 238.994 385.863, 238.996 388.750 C 238.998 391.637, 239.364 394, 239.808 394 C 240.698 394, 240.281 380.506, 238.958 366.500 C 238.178 358.238, 238.144 358.566, 238.550 370.500 M 342.188 359.063 C 342.428 359.784, 343.216 360.572, 343.938 360.813 C 344.688 361.063, 345.063 360.688, 344.813 359.938 C 344.572 359.216, 343.784 358.428, 343.063 358.188 C 342.313 357.938, 341.938 358.313, 342.188 359.063 M 131.733 367.116 C 130.325 369.590, 130.087 371.568, 130.560 376.860 C 130.886 380.512, 131.519 384.400, 131.967 385.500 C 132.416 386.600, 133.269 392.450, 133.864 398.500 C 135.398 414.088, 137.046 425.206, 138.134 427.291 C 138.647 428.276, 138.797 429.519, 138.467 430.053 C 138.137 430.588, 138.518 432.333, 139.315 433.930 C 140.217 435.738, 140.410 437.190, 139.827 437.773 C 138.865 438.735, 139.706 443.908, 140.858 444.116 C 141.211 444.179, 143.863 444.353, 146.750 444.501 L 152 444.771 151.936 440.136 C 151.847 433.738, 149.617 423.706, 148.177 423.226 C 147.523 423.008, 147.206 422.475, 147.474 422.042 C 147.741 421.610, 146.883 417.036, 145.567 411.878 C 144.251 406.720, 142.856 400.475, 142.466 398 C 141.321 390.720, 141.124 389.835, 139.014 382.503 C 137.906 378.655, 137 374.530, 137 373.337 C 137 372.143, 136.540 371.013, 135.979 370.826 C 135.417 370.639, 134.855 369.027, 134.729 367.245 C 134.444 363.217, 133.964 363.197, 131.733 367.116 M 241 366.559 C 241 367.966, 241.408 368.866, 241.906 368.558 C 242.404 368.250, 242.577 367.098, 242.289 365.999 C 241.570 363.247, 241 363.495, 241 366.559 M 357.976 368.083 C 357.963 370.512, 357.553 374.221, 357.065 376.325 C 356.186 380.112, 356.197 380.132, 358.188 378.330 C 359.894 376.786, 360.125 375.628, 359.709 370.698 C 359.115 363.646, 358.009 361.978, 357.976 368.083 M 220.421 399.765 C 219.703 400.255, 219.409 406.674, 219.541 419 L 219.740 437.500 223.620 437.500 L 227.500 437.500 227.151 419 C 226.958 408.825, 226.594 400.163, 226.342 399.750 C 225.755 398.793, 221.834 398.803, 220.421 399.765 M 196.668 404.186 C 196.886 406.559, 197.284 415.236, 197.552 423.470 C 197.820 431.703, 198.441 438.841, 198.932 439.332 C 200.605 441.005, 205.483 438.543, 205.699 435.918 C 205.947 432.888, 206.403 430.788, 207.090 429.500 C 207.383 428.950, 207.545 427.488, 207.448 426.250 C 207.352 425.012, 207.774 423.993, 208.387 423.985 C 209.023 423.976, 208.920 423.602, 208.145 423.110 C 207.025 422.401, 207.078 421.810, 208.452 419.713 C 209.490 418.130, 210.333 414.081, 210.692 408.956 L 211.267 400.738 204.698 401.233 C 201.084 401.505, 197.710 401.310, 197.200 400.800 C 196.629 400.229, 196.424 401.532, 196.668 404.186 M 268.372 423.615 C 266.402 425.665, 266.376 425.865, 268.028 426.297 C 269.332 426.638, 269.948 426.056, 270.318 424.132 C 270.596 422.684, 270.751 421.477, 270.662 421.449 C 270.573 421.422, 269.542 422.396, 268.372 423.615 M 258.250 429.551 C 255.912 432.040, 254 434.708, 254 435.479 C 254 436.251, 253.578 437.142, 253.063 437.461 C 252.548 437.779, 251.458 439.381, 250.640 441.020 C 248.737 444.835, 250.472 445.046, 254.594 441.501 C 256.193 440.127, 257.837 439.002, 258.250 439.001 C 258.663 439.001, 259 438.528, 259 437.952 C 259 437.376, 260.238 435.761, 261.750 434.364 C 263.540 432.711, 263.889 432.019, 262.750 432.381 C 260.778 433.008, 260.309 431.203, 262.250 430.457 C 263.515 429.971, 264.333 424.989, 263.144 425.013 C 262.790 425.020, 260.587 427.062, 258.250 429.551 M 271.192 431.075 C 271.389 431.666, 271.978 432.150, 272.500 432.150 C 273.022 432.150, 273.611 431.666, 273.808 431.075 C 274.005 430.484, 273.417 430, 272.500 430 C 271.583 430, 270.995 430.484, 271.192 431.075 M 273.835 435.771 C 272.919 435.960, 271.910 436.793, 271.591 437.622 C 271.141 438.797, 271.509 438.978, 273.256 438.441 C 276.010 437.595, 276.303 437.351, 275.854 436.277 C 275.659 435.810, 274.751 435.582, 273.835 435.771 M 243.191 440.460 C 243.263 442.363, 243.738 443.662, 244.248 443.347 C 244.757 443.032, 244.961 441.959, 244.700 440.962 C 244.375 439.717, 244.661 439.316, 245.613 439.682 C 246.376 439.975, 247 439.764, 247 439.214 C 247 438.374, 244.796 437, 243.449 437 C 243.235 437, 243.119 438.557, 243.191 440.460 M 197.195 442.500 C 197.215 444.150, 197.439 444.704, 197.693 443.731 C 197.947 442.758, 197.930 441.408, 197.656 440.731 C 197.382 440.054, 197.175 440.850, 197.195 442.500 M 385.268 446.255 C 385.533 446.946, 385.131 448.088, 384.375 448.795 C 383.235 449.859, 383 449.690, 383 447.804 C 383 445.942, 382.629 446.223, 380.951 449.353 C 379.432 452.187, 379.184 453.516, 379.993 454.491 C 380.704 455.348, 380.732 455.926, 380.074 456.153 C 379.446 456.369, 379.407 457.053, 379.971 457.960 C 381.354 460.187, 385.232 456.395, 384.449 453.582 C 384.024 452.058, 384.126 451.871, 384.827 452.885 C 385.603 454.007, 386 453.869, 386.917 452.156 C 388.152 449.847, 387.385 445, 385.785 445 C 385.235 445, 385.003 445.565, 385.268 446.255 M 140.997 447.002 C 139.488 447.935, 143.265 448.968, 148.250 448.986 C 151.923 449, 153.697 447.527, 150.250 447.327 C 149.287 447.271, 147.074 447.013, 145.331 446.753 C 143.589 446.494, 141.638 446.606, 140.997 447.002 M 239.473 447.044 C 239.148 447.570, 239.809 448, 240.941 448 C 243.356 448, 243.599 447.444, 241.532 446.651 C 240.725 446.341, 239.798 446.518, 239.473 447.044 M 218.899 448.693 C 218.426 452.478, 218.648 458.999, 219.250 458.999 C 219.662 459, 220 459.477, 220 460.059 C 220 460.641, 219.533 460.829, 218.962 460.476 C 218.274 460.051, 217.994 462.306, 218.132 467.167 C 218.246 471.200, 218.268 476.525, 218.180 479 C 217.911 486.544, 217.985 486.773, 220.820 487.154 C 222.294 487.353, 224.492 487.371, 225.705 487.194 C 227.899 486.874, 227.909 486.776, 227.705 467.686 L 227.500 448.500 223.250 448.193 C 220.912 448.023, 218.955 448.248, 218.899 448.693 M 139.539 450.938 C 138.629 452.409, 138.017 465.157, 138.794 466.450 C 139.661 467.893, 139.770 472.372, 138.965 473.500 C 137.462 475.607, 137.285 481.582, 138.647 484.250 C 140.292 487.471, 142 487.853, 142 485 C 142 482.270, 144.157 482.489, 147.465 485.555 C 148.982 486.961, 150.475 487.858, 150.783 487.550 C 151.831 486.502, 152.865 452.532, 151.879 451.546 C 150.659 450.326, 140.234 449.812, 139.539 450.938 M 199.667 450.667 C 198.431 451.902, 198.988 453.219, 200.500 452.638 C 201.325 452.322, 202 452.451, 202 452.924 C 202 453.398, 201.267 454.067, 200.371 454.411 C 199.096 454.900, 198.861 455.929, 199.292 459.139 C 199.595 461.396, 200.394 463.750, 201.068 464.371 C 201.982 465.213, 202.127 465.204, 201.640 464.334 C 201.280 463.693, 201.438 461.979, 201.990 460.527 C 202.721 458.604, 202.687 458.075, 201.867 458.582 C 201.179 459.008, 200.937 458.738, 201.245 457.889 C 201.523 457.125, 202.149 456.577, 202.638 456.671 C 203.126 456.765, 203.551 455.302, 203.583 453.421 C 203.626 450.882, 203.215 450, 201.987 450 C 201.078 450, 200.033 450.300, 199.667 450.667 M 286 451.104 C 278.575 451.436, 272.486 451.773, 272.468 451.854 C 272.169 453.224, 271.767 458.698, 271.650 463 C 271.508 468.190, 271.637 468.501, 273.924 468.522 C 275.257 468.534, 276.529 469.209, 276.750 470.022 C 277.072 471.205, 276.965 471.233, 276.215 470.165 C 275.482 469.123, 275.162 469.272, 274.749 470.851 C 274.444 472.017, 274.776 473.084, 275.533 473.374 C 276.254 473.651, 276.622 474.729, 276.350 475.769 C 275.924 477.397, 279.491 486, 280.592 486 C 280.806 486, 280.935 482.738, 280.879 478.750 C 280.823 474.762, 281.345 470.150, 282.040 468.500 C 282.734 466.850, 283.210 464.544, 283.096 463.376 C 282.983 462.208, 283.590 460.553, 284.445 459.698 C 285.300 458.843, 286 457.730, 286 457.226 C 286 455.959, 289.397 453, 290.852 453 C 291.682 453, 291.581 453.709, 290.520 455.330 C 288.756 458.022, 289.350 459, 292.750 459 C 294.235 459, 295.007 459.480, 294.751 460.246 C 294.206 461.882, 287.201 463.039, 286.631 461.588 C 286.396 460.990, 286.222 461.400, 286.243 462.500 C 286.265 463.600, 286.166 464.950, 286.023 465.500 C 285.452 467.696, 286.077 468.908, 287.500 468.362 C 288.450 467.997, 289 468.375, 289 469.393 C 289 470.277, 289.498 471, 290.107 471 C 290.716 471, 290.976 470.380, 290.685 469.621 C 290.235 468.450, 290.844 468.450, 294.737 469.621 C 297.256 470.380, 300.371 471, 301.659 471 C 302.947 471, 304.045 471.563, 304.100 472.250 C 304.155 472.938, 304.560 472.375, 305 471 C 306.145 467.425, 306.145 466, 305 466 C 304.450 466, 304.113 466.506, 304.250 467.125 C 304.387 467.744, 303.938 468.456, 303.252 468.708 C 302.329 469.046, 302.235 468.556, 302.892 466.833 C 303.586 465.009, 304.438 464.553, 306.794 464.741 C 309.361 464.946, 309.731 464.687, 309.287 462.991 C 309.001 461.896, 308.279 461, 307.683 461 C 306.952 461, 306.979 460.621, 307.765 459.835 C 308.652 458.948, 308.521 458.338, 307.215 457.280 C 305.665 456.023, 305.701 455.987, 307.597 456.898 C 309.868 457.990, 312 456.716, 312 454.268 C 312 453.535, 313.012 452.529, 314.250 452.031 C 316.357 451.184, 316.373 451.112, 314.500 450.900 C 310.418 450.436, 299.113 450.517, 286 451.104 M 242 453.139 C 242 453.612, 243.125 454, 244.500 454 C 245.875 454, 247 453.827, 247 453.617 C 247 453.406, 245.875 453.018, 244.500 452.755 C 243.125 452.492, 242 452.665, 242 453.139 M 253.250 452.804 C 252.012 452.988, 251 453.495, 251 453.931 C 251 454.366, 252.125 454.508, 253.500 454.245 C 256.467 453.677, 256.890 455.583, 254 456.500 C 252.900 456.849, 252 457.518, 252 457.986 C 252 458.454, 251.755 459.475, 251.456 460.255 C 251.050 461.311, 251.873 461.709, 254.680 461.814 C 256.753 461.892, 259.680 462.866, 261.184 463.978 C 264.450 466.392, 266 466.550, 266 464.468 C 266 462.780, 262.223 460.988, 260.250 461.738 C 259.102 462.175, 258.891 461.830, 258.600 459.041 C 258.445 457.551, 265.037 453.077, 266.539 453.653 C 267.276 453.936, 268.693 453.682, 269.689 453.089 C 271.069 452.267, 269.596 452.065, 263.500 452.239 C 259.100 452.365, 254.488 452.619, 253.250 452.804 M 264.015 457.191 C 264.024 457.911, 264.467 459.175, 265 460 C 265.788 461.219, 265.972 461.090, 265.985 459.309 C 265.993 458.104, 265.550 456.840, 265 456.500 C 264.450 456.160, 264.007 456.471, 264.015 457.191 M 261.570 472.886 C 261.269 473.374, 261.943 474.013, 263.068 474.308 C 264.746 474.746, 264.902 474.587, 263.935 473.421 C 262.554 471.757, 262.303 471.701, 261.570 472.886 M 252 475 L 248.500 475.737 252 475.769 C 253.925 475.786, 256.625 475.440, 258 475 L 260.500 474.199 258 474.231 C 256.625 474.249, 253.925 474.595, 252 475 M 256 478.096 C 253.735 479.377, 251.089 479.975, 248.500 479.788 C 244.823 479.523, 244.500 479.702, 244.500 482 C 244.500 484.283, 244.841 484.479, 248.425 484.260 C 250.709 484.120, 253.246 483.178, 254.490 482.010 C 255.666 480.904, 257.054 480, 257.574 480 C 258.094 480, 259.081 479.100, 259.768 478 C 261.310 475.530, 260.497 475.551, 256 478.096 M 145.015 496.750 C 145.024 497.163, 145.454 498.169, 145.971 498.987 C 146.710 500.156, 146.875 499.996, 146.743 498.237 C 146.594 496.255, 144.977 494.863, 145.015 496.750 M 219.821 498.693 C 219.194 501.528, 219.660 516.999, 220.372 516.999 C 220.852 517, 220.627 517.761, 219.872 518.692 C 218.940 519.842, 218.901 520.143, 219.750 519.633 C 220.438 519.220, 221 519.332, 221 519.882 C 221 520.432, 220.528 521.174, 219.951 521.530 C 219.233 521.974, 219.269 522.619, 220.063 523.576 C 220.702 524.345, 220.980 525.611, 220.681 526.389 C 220.344 527.266, 220.960 528.018, 222.304 528.369 C 224.450 528.930, 224.452 528.950, 222.485 530.436 C 221.393 531.261, 220.950 531.958, 221.500 531.984 C 222.050 532.009, 221.825 532.508, 221 533.091 C 219.865 533.894, 219.806 534.276, 220.756 534.662 C 221.447 534.942, 221.758 535.582, 221.447 536.085 C 221.136 536.588, 222.726 537, 224.979 537 L 229.076 537 228.664 517.750 L 228.253 498.500 224.126 498.193 C 221.857 498.023, 219.920 498.248, 219.821 498.693 M 141 501.568 C 138.127 502.619, 137.903 502.881, 139.750 503.035 C 145.232 503.491, 146.374 503.378, 146.718 502.345 C 147.317 500.550, 144.742 500.200, 141 501.568 M 374.750 503.410 C 372.688 503.929, 371 504.723, 371 505.176 C 371 506.665, 374.964 510, 376.750 510.014 C 377.712 510.021, 379.406 510.271, 380.513 510.568 C 382.235 511.031, 382.524 510.631, 382.513 507.805 C 382.502 504.902, 382.787 504.540, 384.861 504.832 C 386.477 505.059, 387.080 504.744, 386.774 503.832 C 386.244 502.254, 380.191 502.042, 374.750 503.410 M 246 504 C 245.175 504.533, 244.950 504.983, 245.500 505 C 246.050 505.017, 245.825 505.467, 245 506 C 243.892 506.716, 243.845 506.973, 244.821 506.985 C 246.136 507, 249 504.661, 249 503.571 C 249 502.719, 247.692 502.906, 246 504 M 277 503.883 C 277 504.369, 277.926 505.009, 279.057 505.305 C 280.745 505.746, 280.903 505.588, 279.935 504.421 C 278.614 502.830, 277 502.535, 277 503.883 M 286.079 514.128 C 286.036 515.023, 286.788 516.373, 287.750 517.128 C 289.271 518.320, 289.354 518.303, 288.384 517 C 287.771 516.175, 287.019 514.825, 286.713 514 C 286.249 512.745, 286.145 512.766, 286.079 514.128 M 382 518.902 C 383.925 520.576, 385.841 521.958, 386.258 521.973 C 387.516 522.018, 384.717 518.171, 383.050 517.564 C 382.197 517.253, 380.825 516.742, 380 516.428 C 379.175 516.114, 380.075 517.227, 382 518.902 M 257 532.469 C 257 533.361, 257.587 533.712, 258.494 533.364 C 259.316 533.048, 259.740 532.388, 259.435 531.895 C 258.563 530.483, 257 530.851, 257 532.469 M 348 536.446 C 348 536.756, 354.630 540.270, 362.732 544.255 C 380.898 553.188, 380.998 553.244, 381.008 554.487 C 381.012 555.044, 382.076 555.992, 383.373 556.592 C 385.424 557.543, 385.669 557.450, 385.258 555.879 C 384.468 552.856, 378.169 548.839, 367.068 544.279 C 357.238 540.240, 350.539 537.325, 348.750 536.308 C 348.337 536.074, 348 536.136, 348 536.446 M 372.543 541.931 C 372.226 542.443, 372.494 543.187, 373.138 543.585 C 373.923 544.070, 374.039 543.872, 373.490 542.985 C 372.896 542.023, 373.128 541.835, 374.336 542.299 C 375.251 542.650, 376 542.501, 376 541.969 C 376 540.731, 373.302 540.702, 372.543 541.931 M 249 549.049 C 249 549.760, 248.348 551.063, 247.551 551.944 C 246.750 552.829, 246.442 554.097, 246.863 554.778 C 247.406 555.656, 248.757 554.967, 251.562 552.383 C 253.728 550.387, 254.655 549.042, 253.623 549.394 C 252.591 549.746, 251.129 549.522, 250.373 548.895 C 249.329 548.028, 249 548.065, 249 549.049 M 82.750 550.689 C 80.429 551.296, 80.534 552.680, 83 554 C 84.756 554.940, 85 554.760, 85 552.535 C 85 551.141, 84.888 550.052, 84.750 550.116 C 84.612 550.180, 83.713 550.438, 82.750 550.689 M 365 557.802 C 367.281 559.211, 374.563 560.163, 373.285 558.885 C 372.711 558.311, 370.275 557.625, 367.871 557.359 C 364.948 557.035, 363.997 557.182, 365 557.802 M 262 559 C 260.884 559.721, 261.461 559.973, 264.250 559.985 C 266.313 559.993, 268 559.550, 268 559 C 268 557.726, 263.971 557.726, 262 559" stroke="none" fill="#25262b" fill-rule="evenodd"/></svg>